<?xml version="1.0" encoding="UTF-8"?>
<svg version="1.1" xmlns="http://www.w3.org/2000/svg" width="545" height="194">
<path d="M0 0 C3.47147013 0.02957958 6.94026168 0.09728754 10.41088867 0.17944336 C11.59360352 0.18137695 12.77631836 0.18331055 13.99487305 0.18530273 C24.37891485 0.45302076 33.03254454 3.34286723 40.59838867 10.67944336 C45.3667185 16.78010064 48.11518182 25.04016049 47.66088867 32.80444336 C46.28753896 40.33705846 42.46802036 47.22558362 36.59838867 52.11694336 C36.07374023 52.55780273 35.5490918 52.99866211 35.00854492 53.45288086 C27.03785788 59.70652648 18.3409719 59.38702192 8.59838867 59.24194336 C7.44209961 59.23291992 6.28581055 59.22389648 5.09448242 59.21459961 C2.2622322 59.19119258 -0.56957752 59.15840331 -3.40161133 59.11694336 C-3.42473984 51.57196103 -3.44252902 44.02698235 -3.4534235 36.48197269 C-3.45865122 32.97885451 -3.46574683 29.47576051 -3.47705078 25.97265625 C-3.48995338 21.94913495 -3.49484044 17.92563922 -3.49926758 13.90209961 C-3.50700951 12.00682274 -3.50700951 12.00682274 -3.51490784 10.07325745 C-3.51498337 8.91212936 -3.5150589 7.75100128 -3.51513672 6.5546875 C-3.51846764 5.01247276 -3.51846764 5.01247276 -3.52186584 3.43910217 C-3.35697666 0.25503148 -3.18921767 0.15529483 0 0 Z M12.59838867 14.11694336 C11.73367702 17.10951547 11.46985183 19.7795353 11.46557617 22.89038086 C11.46428711 23.79788086 11.46299805 24.70538086 11.46166992 25.64038086 C11.46553711 26.58139648 11.4694043 27.52241211 11.47338867 28.49194336 C11.46952148 29.42522461 11.4656543 30.35850586 11.46166992 31.32006836 C11.46834386 36.03187018 11.62216959 40.48377662 12.59838867 45.11694336 C20.01360891 45.60220396 20.01360891 45.60220396 27.03588867 43.55444336 C31.18565973 39.60710016 33.77860055 35.90495154 34.03588867 30.05444336 C33.41334859 24.45158265 31.82752069 20.98652348 27.59838867 17.30444336 C23.8457703 14.56815913 21.43065579 13.98893949 16.91088867 14.05444336 C16.10264648 14.0634668 15.2944043 14.07249023 14.46166992 14.08178711 C13.84678711 14.09338867 13.2319043 14.10499023 12.59838867 14.11694336 Z " fill="#1BB6A4" transform="translate(456.401611328125,64.883056640625)"/>
<path d="M0 0 C33.70967742 0 33.70967742 0 44.0625 9.875 C50.23759085 17.88755691 51.20340952 25.97908524 50 36 C47.1752327 44.77654036 41.06964831 51.59415753 33 56 C26 58 26 58 0 58 C0 38.86 0 19.72 0 0 Z M15 14 C15 23.9 15 33.8 15 44 C25.35440067 44.53425712 25.35440067 44.53425712 33 40 C35.87080042 36.62510069 37.23410124 33.36989797 37.4375 28.9375 C36.81495992 23.33463929 35.22913202 19.86958012 31 16.1875 C26.43721927 12.86047239 20.34965998 11.32517001 15 14 Z " fill="#1FB4A3" transform="translate(218,66)"/>
<path d="M0 0 C31.46666667 0 31.46666667 0 38.05859375 5.81640625 C38.74115234 6.68072266 38.74115234 6.68072266 39.4375 7.5625 C39.91058594 8.14128906 40.38367188 8.72007813 40.87109375 9.31640625 C43.97315416 13.94266244 43.46636742 19.66353347 43 25 C41.4375 28.4375 41.4375 28.4375 40 31 C40.2167152 33.38386718 40.9645117 34.92696013 42.0078125 37.07421875 C43.32867642 40.96920724 43.49796844 44.66301034 43.6875 48.75 C43.73455078 49.52988281 43.78160156 50.30976562 43.83007812 51.11328125 C43.93405931 53.07358231 43.97262097 55.03713405 44 57 C43 58 43 58 40.3125 58.1328125 C39.219375 58.13023438 38.12625 58.12765625 37 58.125 C35.906875 58.12757812 34.81375 58.13015625 33.6875 58.1328125 C31 58 31 58 30 57 C29.83612693 53.44031275 29.74503063 49.88299157 29.671875 46.3203125 C29.32813654 42.89102851 29.32813654 42.89102851 26.78515625 41.06640625 C23.84244097 39.93967235 21.81973926 39.68721043 18.6875 39.8125 C17.80449219 39.83957031 16.92148437 39.86664063 16.01171875 39.89453125 C15.01591797 39.94673828 15.01591797 39.94673828 14 40 C14.17402344 40.68449219 14.34804688 41.36898437 14.52734375 42.07421875 C15.38584389 47.38840555 14.48511407 52.66374518 14 58 C9.38 58 4.76 58 0 58 C0 38.86 0 19.72 0 0 Z M14 13 C14 17.29 14 21.58 14 26 C15.8975 26.0825 17.795 26.165 19.75 26.25 C21.35101563 26.31960937 21.35101563 26.31960937 22.984375 26.390625 C26.08777266 26.23972826 26.08777266 26.23972826 28.390625 24.2109375 C30.35555896 21.9673136 30.35555896 21.9673136 30 18.375 C29.33122257 15.05792965 29.33122257 15.05792965 27.4375 13.5625 C23.88861212 12.74352587 20.64602351 12.88425322 17 13 C16.01 13 15.02 13 14 13 Z " fill="#20B5A3" transform="translate(403,66)"/>
<path d="M0 0 C2.19050021 0.09017996 4.378466 0.24666208 6.5625 0.4375 C9.7490625 0.7159375 9.7490625 0.7159375 13 1 C13.33 7.27 13.66 13.54 14 20 C15.65 19.67 17.3 19.34 19 19 C26.08061012 19.62801933 31.45687566 22.17430628 36.25 27.5 C42.64918786 36.64169694 41.4782897 49.2244145 41 60 C40 61 40 61 37.05859375 61.09765625 C35.86363281 61.08605469 34.66867187 61.07445312 33.4375 61.0625 C31.64119141 61.04896484 31.64119141 61.04896484 29.80859375 61.03515625 C28.88175781 61.02355469 27.95492188 61.01195312 27 61 C26.98018066 60.31897217 26.96036133 59.63794434 26.93994141 58.9362793 C26.84473017 55.85296083 26.73503534 52.77032351 26.625 49.6875 C26.5940625 48.61564453 26.563125 47.54378906 26.53125 46.43945312 C26.49257813 45.41142578 26.45390625 44.38339844 26.4140625 43.32421875 C26.36693115 41.9024231 26.36693115 41.9024231 26.31884766 40.4519043 C26.1510949 37.7469731 26.1510949 37.7469731 24 35 C21.13923862 34.02131847 19.61297231 33.77864889 16.75 34.8125 C14.84925076 35.89399368 14.84925076 35.89399368 14 38 C13.84733388 39.73868744 13.75067404 41.48247501 13.68359375 43.2265625 C13.64169922 44.2578125 13.59980469 45.2890625 13.55664062 46.3515625 C13.51732422 47.43179688 13.47800781 48.51203125 13.4375 49.625 C13.39431641 50.71296875 13.35113281 51.8009375 13.30664062 52.921875 C13.2003547 55.6144517 13.09831943 58.30712253 13 61 C10.85423363 61.02685938 8.70837355 61.04633088 6.5625 61.0625 C5.36753906 61.07410156 4.17257812 61.08570313 2.94140625 61.09765625 C0 61 0 61 -1 60 C-1.09905152 58.16427369 -1.12799207 56.32472425 -1.12939453 54.48632812 C-1.13254669 53.30840698 -1.13569885 52.13048584 -1.13894653 50.91687012 C-1.1369223 49.63461548 -1.13489807 48.35236084 -1.1328125 47.03125 C-1.13376923 45.72546997 -1.13472595 44.41968994 -1.13571167 43.07434082 C-1.13718833 40.30687278 -1.13503511 37.53943696 -1.13037109 34.77197266 C-1.12467381 31.21737351 -1.12795298 27.66284986 -1.13394356 24.10825348 C-1.13841747 20.72841286 -1.13528886 17.34859277 -1.1328125 13.96875 C-1.13483673 12.68649536 -1.13686096 11.40424072 -1.13894653 10.08312988 C-1.13579437 8.90520874 -1.13264221 7.7272876 -1.12939453 6.51367188 C-1.12859894 5.47078003 -1.12780334 4.42788818 -1.12698364 3.35339355 C-1 1 -1 1 0 0 Z " fill="#73A555" transform="translate(356,63)"/>
<path d="M0 0 C1.65032227 0.00773437 1.65032227 0.00773437 3.33398438 0.015625 C11.4079168 0.0954168 11.4079168 0.0954168 12.5625 1.25 C12.63508946 3.43639453 12.64623783 5.62500389 12.625 7.8125 C12.61597656 9.01003906 12.60695312 10.20757812 12.59765625 11.44140625 C12.58605469 12.36824219 12.57445312 13.29507813 12.5625 14.25 C11.5725 14.25 10.5825 14.25 9.5625 14.25 C10.0575 15.0234375 10.0575 15.0234375 10.5625 15.8125 C12.57405848 20.71567378 11.88673412 25.00254262 10 29.8125 C6.99033244 35.98968482 2.6344348 39.64884615 -3.6875 42.25 C-9.18072763 43.80345109 -14.12220622 43.23834259 -19.4375 41.25 C-26.07761957 37.07120976 -29.44940782 32.1364959 -31.375 24.5625 C-31.93166976 18.3917565 -29.74296722 12.12601214 -25.890625 7.3203125 C-18.247184 0.27291965 -9.93266021 -0.19089797 0 0 Z M-15.4375 16.25 C-17.78272935 19.13512978 -17.78272935 19.13512978 -17.3125 22.75 C-16.7125 26.2 -16.7125 26.2 -14.8125 28.25 C-11.35366747 29.70635054 -9.02451629 29.16305869 -5.4375 28.25 C-3.39298981 27.20625978 -3.39298981 27.20625978 -2.4375 25.25 C-2.01150084 21.91300655 -2.08143405 19.94339158 -3.625 16.9375 C-7.44539144 13.38058383 -11.04845215 13.8775417 -15.4375 16.25 Z " fill="#1CB5A4" transform="translate(126.4375,81.75)"/>
<path d="M0 0 C4.25899061 3.09106123 7.24291464 7.42015018 8.89453125 12.375 C9.15271539 15.08880215 9.3631259 17.78030099 9.51953125 20.5 C9.56456787 21.26175537 9.60960449 22.02351074 9.65600586 22.80834961 C9.92864403 28.12337682 9.75623462 33.10903497 8.89453125 38.375 C7.98832031 38.36339844 7.08210938 38.35179687 6.1484375 38.33984375 C-1.91480219 38.24240655 -1.91480219 38.24240655 -9.91796875 39.0625 C-15.67680379 39.77834777 -20.56475082 38.33982186 -25.15625 34.7890625 C-30.50754875 29.71474608 -32.47549705 25.00343397 -33.12890625 17.70703125 C-33.0668829 11.53570765 -30.08548249 6.37570965 -25.96875 1.921875 C-17.8415318 -4.82524954 -8.97328621 -4.81407071 0 0 Z M-18.10546875 13.375 C-19.4420702 16.73092863 -19.4420702 16.73092863 -19.10546875 20.375 C-17.27213542 23.54166667 -17.27213542 23.54166667 -14.10546875 25.375 C-10.26273045 25.44125411 -8.11346159 25.19399419 -5.10546875 22.75 C-3.62136709 19.22525855 -4.04891886 17.00689024 -5.10546875 13.375 C-9.8135235 9.53421849 -13.397414 9.53421849 -18.10546875 13.375 Z " fill="#1DB5A2" transform="translate(304.10546875,85.625)"/>
<path d="M0 0 C5.31384624 3.10974575 9.33135046 7.34950617 11.125 13.3125 C12.21967283 19.13570804 11.75765771 24.33834449 9.0625 29.625 C4.79244828 34.68164019 0.42239102 39.24898982 -6.3125 40.4375 C-13.48648083 40.63106441 -18.76401807 39.00986011 -24.3125 34.4375 C-29.57030479 28.90296864 -30.79770588 23.68017638 -30.6171875 16.21875 C-30.0392874 10.94355932 -28.28093754 7.25147263 -24.37109375 3.6484375 C-17.18627764 -1.93534224 -8.64308324 -3.9044044 0 0 Z M-16.3125 14.4375 C-17.64910145 17.79342863 -17.64910145 17.79342863 -17.3125 21.4375 C-14.88177503 24.89944162 -13.43428713 26.23145747 -9.25 27 C-6.26357744 26.62236055 -6.26357744 26.62236055 -3.9375 24.875 C-1.67336105 21.47879157 -1.66980245 19.43650698 -2.3125 15.4375 C-4.43935929 12.8857714 -4.43935929 12.8857714 -7.3125 11.4375 C-11.6464145 11.4375 -13.04356489 11.69866247 -16.3125 14.4375 Z " fill="#1EB4A3" transform="translate(201.3125,84.5625)"/>
<path d="M0 0 C0.66 0 1.32 0 2 0 C3.69140625 2.4140625 3.69140625 2.4140625 5.5625 5.625 C6.18253906 6.66914062 6.80257812 7.71328125 7.44140625 8.7890625 C8.99346379 11.98653443 9.47249837 14.51755559 10 18 C11.12083833 20.57501414 11.12083833 20.57501414 12.5 23 C14.48087848 26.78167711 15.29865102 29.79190614 16 34 C17.22939781 36.62851047 18.5582841 39.17972507 19.94140625 41.73046875 C21 44 21 44 21 47 C15.06 47 9.12 47 3 47 C3 50.3 3 53.6 3 57 C1.35 56.67 -0.3 56.34 -2 56 C-2 53.03 -2 50.06 -2 47 C-7.94 47 -13.88 47 -20 47 C-18.99841458 41.99207292 -17.35390721 38.26738935 -15.15625 33.71875 C-14.04437628 31.10434422 -13.55356447 28.77214705 -13 26 C-12.21305003 24.1256766 -11.37734435 22.27125172 -10.5 20.4375 C-8.73524705 16.81063621 -8.73524705 16.81063621 -7.53125 12.984375 C-6.80738246 10.28051685 -5.46211793 8.19195634 -4 5.8125 C-3.46375 4.93207031 -2.9275 4.05164063 -2.375 3.14453125 C-1 1 -1 1 0 0 Z " fill="#1DB6A4" transform="translate(72,68)"/>
<path d="M0 0 C2.13106799 0.95239489 4.18381734 1.95269908 6.21484375 3.1015625 C5.39192121 7.08624006 3.55430644 9.78103482 1.21484375 13.1015625 C-4.78515625 11.6015625 -4.78515625 11.6015625 -10.78515625 10.1015625 C-9.29379174 13.08429151 -7.11793059 13.22371823 -4.03515625 14.3515625 C1.34319506 16.54772262 4.39711476 17.9692704 7.21484375 23.1015625 C7.97560089 26.96620878 7.59235614 30.17875443 6.08984375 33.8515625 C2.36610495 38.32004906 -2.01127843 40.81261689 -7.78515625 41.4140625 C-13.68531234 41.36352583 -19.57207522 38.70810301 -24.78515625 36.1015625 C-24.25400519 31.58677852 -22.41895333 28.75489393 -19.78515625 25.1015625 C-19.09808594 25.40191406 -18.41101563 25.70226562 -17.703125 26.01171875 C-16.80207031 26.39199219 -15.90101563 26.77226563 -14.97265625 27.1640625 C-13.63267578 27.73833984 -13.63267578 27.73833984 -12.265625 28.32421875 C-9.69323265 29.39617455 -9.69323265 29.39617455 -6.78515625 28.1015625 C-7.59339844 27.73804687 -8.40164063 27.37453125 -9.234375 27 C-20.78506058 21.56602246 -20.78506058 21.56602246 -23.78515625 16.1015625 C-24.60971838 12.22332538 -24.70802261 8.81286194 -22.79296875 5.26171875 C-17.06093331 -2.01903434 -8.52269701 -2.7492571 0 0 Z " fill="#1BB5A3" transform="translate(342.78515625,83.8984375)"/>
<path d="M0 0 C4.62 0 9.24 0 14 0 C14.84536234 9.50697174 15.15324473 18.89548811 15.125 28.4375 C15.12886719 29.74009766 15.13273438 31.04269531 15.13671875 32.38476562 C15.12815789 40.98415258 14.69978897 49.43036209 14 58 C9.38 58 4.76 58 0 58 C0 38.86 0 19.72 0 0 Z " fill="#6AB426" transform="translate(218,66)"/>
<path d="M0 0 C2.02408755 0.09002398 4.04544287 0.24641038 6.0625 0.4375 C7.71958984 0.59025391 7.71958984 0.59025391 9.41015625 0.74609375 C10.26480469 0.82988281 11.11945313 0.91367188 12 1 C12.06058594 1.85464844 12.12117188 2.70929688 12.18359375 3.58984375 C12.26738281 4.69457031 12.35117187 5.79929687 12.4375 6.9375 C12.51871094 8.03964844 12.59992188 9.14179687 12.68359375 10.27734375 C12.70418084 12.91109903 12.70418084 12.91109903 14 14 C14.1006443 16.29639904 14.13081953 18.59592867 14.1328125 20.89453125 C14.13376923 21.5971257 14.13472595 22.29972015 14.13571167 23.02360535 C14.13639433 24.52086475 14.13453413 26.01812708 14.13037109 27.51538086 C14.12511134 29.76488281 14.13026681 32.01417693 14.13671875 34.26367188 C14.14017377 42.5684999 13.82671789 50.72625986 13 59 C8.38 59 3.76 59 -1 59 C-1.02255549 51.45501411 -1.04091769 43.91004069 -1.05181217 36.36502934 C-1.05703989 32.86191115 -1.0641355 29.35881715 -1.07543945 25.85571289 C-1.08834206 21.83219159 -1.09322912 17.80869586 -1.09765625 13.78515625 C-1.10539818 11.88987938 -1.10539818 11.88987938 -1.11329651 9.95631409 C-1.11337204 8.795186 -1.11344757 7.63405792 -1.11352539 6.43774414 C-1.11685631 4.8955294 -1.11685631 4.8955294 -1.12025452 3.32215881 C-1 1 -1 1 0 0 Z " fill="#69B427" transform="translate(454,65)"/>
<path d="M0 0 C4.95 0 9.9 0 15 0 C15.02495131 6.17065139 15.04297757 12.3412726 15.05493164 18.51196289 C15.05992175 20.6057181 15.06671621 22.6994699 15.07543945 24.79321289 C15.12060773 35.92320737 15.09052992 46.91437694 14 58 C9.38 58 4.76 58 0 58 C0 38.86 0 19.72 0 0 Z " fill="#75AD49" transform="translate(403,66)"/>
<path d="M0 0 C1.5631897 0.00785522 1.5631897 0.00785522 3.15795898 0.01586914 C4.28266602 0.0190918 5.40737305 0.02231445 6.56616211 0.02563477 C7.75016602 0.03401367 8.93416992 0.04239258 10.15405273 0.05102539 C11.34192383 0.05553711 12.52979492 0.06004883 13.75366211 0.06469727 C16.69967499 0.07652864 19.64558954 0.09301252 22.59155273 0.11352539 C21.21640428 9.93767919 21.21640428 9.93767919 19.59155273 13.11352539 C17.28126189 13.85611888 14.94580074 14.52496339 12.59155273 15.11352539 C10.53707237 18.09222758 10.30162154 20.75821962 10.17749023 24.31665039 C10.11948242 25.78618164 10.11948242 25.78618164 10.06030273 27.28540039 C10.01389648 28.80907227 10.01389648 28.80907227 9.96655273 30.36352539 C9.90854492 31.91040039 9.90854492 31.91040039 9.84936523 33.48852539 C9.75524017 36.02990202 9.67231342 38.57168897 9.59155273 41.11352539 C5.30155273 41.11352539 1.01155273 41.11352539 -3.40844727 41.11352539 C-3.43309431 35.43522461 -3.45128189 29.7569547 -3.46337891 24.07861328 C-3.46841983 22.14533954 -3.47525245 20.21206963 -3.48388672 18.27880859 C-3.49596291 15.50625667 -3.50167783 12.73375498 -3.50610352 9.96118164 C-3.5112648 9.09139175 -3.51642609 8.22160187 -3.52174377 7.32545471 C-3.52193912 5.25446725 -3.47052894 3.18358215 -3.40844727 1.11352539 C-2.40844727 0.11352539 -2.40844727 0.11352539 0 0 Z " fill="#66AB4E" transform="translate(147.408447265625,82.886474609375)"/>
<path d="M0 0 C5.67566843 2.99262517 9.45065674 7.11937205 12 13 C13.53128779 21.3931906 13.37744658 30.4963505 13 39 C12 40 12 40 9.05859375 40.09765625 C7.86363281 40.08605469 6.66867187 40.07445312 5.4375 40.0625 C3.64119141 40.04896484 3.64119141 40.04896484 1.80859375 40.03515625 C0.88175781 40.02355469 -0.04507812 40.01195312 -1 40 C-1.01981934 39.31897217 -1.03963867 38.63794434 -1.06005859 37.9362793 C-1.15526983 34.85296083 -1.26496466 31.77032351 -1.375 28.6875 C-1.4059375 27.61564453 -1.436875 26.54378906 -1.46875 25.43945312 C-1.50742187 24.41142578 -1.54609375 23.38339844 -1.5859375 22.32421875 C-1.63306885 20.9024231 -1.63306885 20.9024231 -1.68115234 19.4519043 C-1.8489051 16.7469731 -1.8489051 16.7469731 -4 14 C-6.83260635 13.03095046 -8.35988999 12.76224485 -11.1875 13.8125 C-13.13894384 15.00297433 -13.13894384 15.00297433 -15 17 C-16.53266582 13.93466836 -16.10276471 10.73245728 -16.0625 7.375 C-16.05798828 6.66859375 -16.05347656 5.9621875 -16.04882812 5.234375 C-16.03703875 3.48954725 -16.01910324 1.744763 -16 0 C-10.31248381 -2.73576728 -5.90264582 -1.69267049 0 0 Z " fill="#21B5A4" transform="translate(384,84)"/>
<path d="M0 0 C1.79244141 0.01740234 1.79244141 0.01740234 3.62109375 0.03515625 C5.41740234 0.04869141 5.41740234 0.04869141 7.25 0.0625 C8.17683594 0.07410156 9.10367188 0.08570312 10.05859375 0.09765625 C12.51275675 4.62313282 12.87228884 8.30088391 11.40625 13.33984375 C8.82634424 19.91694254 5.20639775 23.88653956 -1.0078125 27.19921875 C-7.15567793 29.72875193 -12.74436976 29.38747032 -18.94140625 27.09765625 C-22.24191267 25.20272827 -24.76954589 23.24289941 -26.94140625 20.09765625 C-27.59097881 17.12001566 -27.37313216 15.17370335 -26.94140625 12.09765625 C-25.29140625 11.43765625 -23.64140625 10.77765625 -21.94140625 10.09765625 C-20.95140625 11.58265625 -20.95140625 11.58265625 -19.94140625 13.09765625 C-20.93140625 13.59265625 -20.93140625 13.59265625 -21.94140625 14.09765625 C-22.27140625 15.08765625 -22.60140625 16.07765625 -22.94140625 17.09765625 C-21.29140625 15.77765625 -19.64140625 14.45765625 -17.94140625 13.09765625 C-17.61140625 13.42765625 -17.28140625 13.75765625 -16.94140625 14.09765625 C-14.71309272 14.33641048 -14.71309272 14.33641048 -12.12890625 14.34765625 C-11.25621094 14.3734375 -10.38351563 14.39921875 -9.484375 14.42578125 C-6.44916399 14.03414112 -5.11022074 13.23148986 -2.94140625 11.09765625 C-2.55778243 7.49159236 -3.0413485 4.56930759 -3.94140625 1.09765625 C-2.94140625 0.09765625 -2.94140625 0.09765625 0 0 Z " fill="#1CB6A3" transform="translate(125.94140625,95.90234375)"/>
<path d="M0 0 C2.97 0.33 5.94 0.66 9 1 C9 1.66 9 2.32 9 3 C9.66 3 10.32 3 11 3 C11 3.66 11 4.32 11 5 C9.68 5 8.36 5 7 5 C6.89158049 6.91541138 6.81421921 8.83259773 6.75 10.75 C6.68039062 12.35101563 6.68039062 12.35101563 6.609375 13.984375 C6.76105012 17.08931659 6.76105012 17.08931659 8.79296875 19.40234375 C11.02815079 21.3725121 11.02815079 21.3725121 14.5625 20.8125 C17.95442066 20.06493016 17.95442066 20.06493016 21 19 C21 23.95 21 28.9 21 34 C14.57769448 36.56892221 10.33848047 36.13508336 3.875 33.9375 C-2.33037774 29.755615 -6.09752277 25.45823761 -7.625 18 C-8.30024091 12.4573975 -7.4778358 8.95567159 -5 4 C-4.01 4 -3.02 4 -2 4 C-1.34 2.68 -0.68 1.36 0 0 Z " fill="#1AB6A4" transform="translate(279,89)"/>
<path d="M0 0 C2.02408755 0.09002398 4.04544287 0.24641038 6.0625 0.4375 C7.71958984 0.59025391 7.71958984 0.59025391 9.41015625 0.74609375 C10.26480469 0.82988281 11.11945313 0.91367188 12 1 C12.06058594 1.84304687 12.12117188 2.68609375 12.18359375 3.5546875 C12.26738281 4.65039062 12.35117187 5.74609375 12.4375 6.875 C12.51871094 7.96554688 12.59992188 9.05609375 12.68359375 10.1796875 C12.83001703 12.94728971 12.83001703 12.94728971 14 15 C9.38 15 4.76 15 0 15 C0 24.9 0 34.8 0 45 C4.62 45 9.24 45 14 45 C13.67 49.62 13.34 54.24 13 59 C8.38 59 3.76 59 -1 59 C-1.02255549 51.45501411 -1.04091769 43.91004069 -1.05181217 36.36502934 C-1.05703989 32.86191115 -1.0641355 29.35881715 -1.07543945 25.85571289 C-1.08834206 21.83219159 -1.09322912 17.80869586 -1.09765625 13.78515625 C-1.10539818 11.88987938 -1.10539818 11.88987938 -1.11329651 9.95631409 C-1.11337204 8.795186 -1.11344757 7.63405792 -1.11352539 6.43774414 C-1.11685631 4.8955294 -1.11685631 4.8955294 -1.12025452 3.32215881 C-1 1 -1 1 0 0 Z " fill="#43B367" transform="translate(454,65)"/>
<path d="M0 0 C0.66 0 1.32 0 2 0 C3.60977813 9.07329489 2.14049769 15.83847737 -2.625 23.75 C-7.06545938 29.96004839 -13.2807046 34.24255154 -20.8046875 35.765625 C-25.19740459 36.23459836 -29.59056564 36.1459004 -34 36 C-34.10152799 29.2314676 -34.03026944 22.69675136 -33 16 C-32.67 16 -32.34 16 -32 16 C-32 17.98 -32 19.96 -32 22 C-30.24908981 21.91245449 -28.49920449 21.80426627 -26.75 21.6875 C-25.77546875 21.62949219 -24.8009375 21.57148437 -23.796875 21.51171875 C-20.7231451 20.94934638 -19.37229063 19.95766461 -17 18 C-16.34 18 -15.68 18 -15 18 C-14.690625 17.21625 -14.38125 16.4325 -14.0625 15.625 C-13 13 -13 13 -12 11 C-11.93003986 9.29297265 -11.91559846 7.58331997 -11.9375 5.875 C-11.94652344 4.96492188 -11.95554687 4.05484375 -11.96484375 3.1171875 C-11.97644531 2.41851562 -11.98804688 1.71984375 -12 1 C-11.34 1.33 -10.68 1.66 -10 2 C-8.98748971 10.47508615 -11.23840333 16.95572901 -16 24 C-17.63273222 25.37467853 -19.29487843 26.7162103 -21 28 C-21.33 28.66 -21.66 29.32 -22 30 C-21.278125 29.62875 -20.55625 29.2575 -19.8125 28.875 C-16.39011689 27.81025859 -15.11771927 28.39660152 -12 30 C-12 29.34 -12 28.68 -12 28 C-11.01 27.34 -10.02 26.68 -9 26 C-8.65657551 24.66923011 -8.32380126 23.33568021 -8 22 C-6.4375 20.25 -6.4375 20.25 -5 19 C-4.01 19.33 -3.02 19.66 -2 20 C-2.04125 18.72125 -2.0825 17.4425 -2.125 16.125 C-2.1953125 13.9453125 -2.1953125 13.9453125 -2 12 C-1.34 11.34 -0.68 10.68 0 10 C0.24287489 7.55987051 0.24287489 7.55987051 0.125 4.875 C0.10695313 3.96492188 0.08890625 3.05484375 0.0703125 2.1171875 C0.04710937 1.41851562 0.02390625 0.71984375 0 0 Z M-17 26 C-16.01 26.495 -16.01 26.495 -15 27 C-15.99 27.495 -15.99 27.495 -17 28 C-17 27.34 -17 26.68 -17 26 Z " fill="#2FB5A4" transform="translate(501,88)"/>
<path d="M0 0 C10.45293651 -0.77111827 18.154054 -0.27306216 27 6 C31.42012181 9.91627373 34.14538208 13.05886095 35 19 C34.34 19 33.68 19 33 19 C32.67 17.35 32.34 15.7 32 14 C31.01 14 30.02 14 29 14 C28.34 14.66 27.68 15.32 27 16 C25.5393715 13.35261084 25 12.10551666 25 9 C24.01 8.67 23.02 8.34 22 8 C21.34 9.32 20.68 10.64 20 12 C19.34 12 18.68 12 18 12 C18.70339566 14.50965614 18.70339566 14.50965614 20 17 C22.04105639 17.88693303 22.04105639 17.88693303 24 18 C23.34 19.32 22.68 20.64 22 22 C21.195625 20.8553125 21.195625 20.8553125 20.375 19.6875 C15.48232605 14.15105316 10.01602305 13.45214371 3 13 C2.67 14.32 2.34 15.64 2 17 C0.14868517 13.07142246 -0.22004943 10.01224888 -0.125 5.6875 C-0.10695313 4.61886719 -0.08890625 3.55023438 -0.0703125 2.44921875 C-0.04710937 1.64097656 -0.02390625 0.83273438 0 0 Z " fill="#1CB6A3" transform="translate(466,66)"/>
<path d="M0 0 C0.7115625 0.16242188 1.423125 0.32484375 2.15625 0.4921875 C5.00338849 1.00060509 7.61104691 1.13311504 10.5 1.125 C11.4178125 1.12757813 12.335625 1.13015625 13.28125 1.1328125 C16.40396891 1.04750553 16.40396891 1.04750553 21 0 C22.65 3.96 24.3 7.92 26 12 C20.59269037 14.70009269 16.44464841 15.44599219 10.4375 15.3125 C9.70853516 15.31572266 8.97957031 15.31894531 8.22851562 15.32226562 C3.78463115 15.27826677 0.18379029 14.6589753 -4 13 C-3.40895235 8.15340923 -2.02055843 4.39251833 0 0 Z " fill="#1BB5A3" transform="translate(106,129)"/>
<path d="M0 0 C0.68201156 5.37084106 1.11521265 10.58500559 1 16 C1.66 16 2.32 16 3 16 C3 20.62 3 25.24 3 30 C-0.63 30 -4.26 30 -8 30 C-8 21.09 -8 12.18 -8 3 C-8.99 3.33 -9.98 3.66 -11 4 C-10.67 3.01 -10.34 2.02 -10 1 C-6.52674819 -0.1577506 -3.63932552 -0.06866652 0 0 Z " fill="#1AB6A3" transform="translate(392,93)"/>
<path d="M0 0 C0.66 0.33 1.32 0.66 2 1 C2 5.29 2 9.58 2 14 C0.86820313 14.06058594 -0.26359375 14.12117188 -1.4296875 14.18359375 C-2.91147145 14.26799917 -4.3932416 14.35264717 -5.875 14.4375 C-6.99455078 14.49647461 -6.99455078 14.49647461 -8.13671875 14.55664062 C-12.19986864 14.71573624 -12.19986864 14.71573624 -16 16 C-18.60546875 14.94921875 -18.60546875 14.94921875 -21 13 C-21.48828125 10.08203125 -21.48828125 10.08203125 -21.3125 6.8125 C-21.26738281 5.72582031 -21.22226563 4.63914062 -21.17578125 3.51953125 C-21.11777344 2.68808594 -21.05976562 1.85664062 -21 1 C-16.25 1.875 -16.25 1.875 -14 3 C-13.67 2.34 -13.34 1.68 -13 1 C-12.31292969 1.01160156 -11.62585938 1.02320312 -10.91796875 1.03515625 C-10.01691406 1.04417969 -9.11585937 1.05320312 -8.1875 1.0625 C-6.84751953 1.07990234 -6.84751953 1.07990234 -5.48046875 1.09765625 C-2.86586209 1.11009967 -2.86586209 1.11009967 0 0 Z " fill="#40B465" transform="translate(137,82)"/>
<path d="M0 0 C0.7938642 7.21805755 1.07875823 13.80827843 0 21 C-4.29 21 -8.58 21 -13 21 C-13.19421438 18.04196565 -13.38066186 15.08379837 -13.5625 12.125 C-13.61857422 11.28324219 -13.67464844 10.44148438 -13.73242188 9.57421875 C-13.78076172 8.76855469 -13.82910156 7.96289062 -13.87890625 7.1328125 C-13.9260376 6.38918457 -13.97316895 5.64555664 -14.02172852 4.87939453 C-14 3 -14 3 -13 1 C-10.3125 0.5859375 -10.3125 0.5859375 -7 0.375 C-5.906875 0.30023438 -4.81375 0.22546875 -3.6875 0.1484375 C-1 0 -1 0 0 0 Z " fill="#4FB160" transform="translate(313,103)"/>
<path d="M0 0 C1.10021484 -0.01836914 1.10021484 -0.01836914 2.22265625 -0.03710938 C6.06063514 -0.04759566 7.85847074 0.00981383 11.125 2.1875 C11.125 2.8475 11.125 3.5075 11.125 4.1875 C11.785 4.1875 12.445 4.1875 13.125 4.1875 C13.785 7.8175 14.445 11.4475 15.125 15.1875 C12.815 15.1875 10.505 15.1875 8.125 15.1875 C8.125 14.1975 8.125 13.2075 8.125 12.1875 C5.69112247 10.97056124 3.70661154 10.86790104 1 10.625 C0.08992187 10.54121094 -0.82015625 10.45742187 -1.7578125 10.37109375 C-2.80582031 10.28021484 -2.80582031 10.28021484 -3.875 10.1875 C-4.205 8.8675 -4.535 7.5475 -4.875 6.1875 C-6.855 7.1775 -6.855 7.1775 -8.875 8.1875 C-8.545 9.1775 -8.215 10.1675 -7.875 11.1875 C-7.215 11.1875 -6.555 11.1875 -5.875 11.1875 C-5.875 11.8475 -5.875 12.5075 -5.875 13.1875 C-7.195 13.1875 -8.515 13.1875 -9.875 13.1875 C-11.0625 11.125 -11.0625 11.125 -11.875 8.1875 C-9.12712887 0.33643963 -7.85985258 0.00683465 0 0 Z " fill="#1BB6A3" transform="translate(190.875,84.8125)"/>
<path d="M0 0 C3.63 0 7.26 0 11 0 C12.06712396 16.00685938 12.06712396 16.00685938 9.58203125 20.6484375 C7.80354863 22.38520731 6.1090163 23.69258136 4 25 C2.68 25.99 1.36 26.98 0 28 C0 18.76 0 9.52 0 0 Z " fill="#69B429" transform="translate(357,65)"/>
<path d="M0 0 C4.6603705 -0.36551926 7.95142865 -0.62058305 12.0625 1.8125 C14 4 14 4 14 7 C14.969375 6.979375 15.93875 6.95875 16.9375 6.9375 C20 7 20 7 21 8 C20.984375 10.21484375 20.984375 10.21484375 20.75 12.9375 C20.68296875 13.83339844 20.6159375 14.72929688 20.546875 15.65234375 C20 18 20 18 17 20 C12 15 12 15 10.3125 13.25 C9.00032127 11.87807647 9.00032127 11.87807647 7 11 C7 10.34 7 9.68 7 9 C4.03 9 1.06 9 -2 9 C-2.33 6.69 -2.66 4.38 -3 2 C-2.01 2 -1.02 2 0 2 C0 1.34 0 0.68 0 0 Z " fill="#1AB6A4" transform="translate(422,68)"/>
<path d="M0 0 C0 0.66 0 1.32 0 2 C-2.31 2 -4.62 2 -7 2 C-7 2.66 -7 3.32 -7 4 C-8.2065625 4.6496875 -8.2065625 4.6496875 -9.4375 5.3125 C-12.17166619 6.74221936 -12.17166619 6.74221936 -12.8125 9.3125 C-13.01533268 12.21976844 -13.06775273 15.08663274 -13 18 C-8.545 17.01 -8.545 17.01 -4 16 C-4 15.01 -4 14.02 -4 13 C-4 12.34 -4 11.68 -4 11 C-3.34 11 -2.68 11 -2 11 C-1.67 11.66 -1.34 12.32 -1 13 C0.89535724 13.80232914 2.81711471 14.54284685 4.75 15.25 C10.12835131 17.44616012 13.18227101 18.8677079 16 24 C16.74602335 28.3121789 16.48203364 31.27694955 14 35 C13.67 33.68 13.34 32.36 13 31 C13.66 31 14.32 31 15 31 C14.34 28.36 13.68 25.72 13 23 C11.68 22.67 10.36 22.34 9 22 C8.67 21.01 8.34 20.02 8 19 C4.99152582 17.77479736 4.99152582 17.77479736 2 17 C2 17.66 2 18.32 2 19 C1.34 19 0.68 19 0 19 C0.66 20.0725 1.32 21.145 2 22.25 C3.88295807 25.30980686 4 26.1335864 4 30 C3.34 29.67 2.68 29.34 2 29 C1.12730469 28.60425781 0.25460937 28.20851563 -0.64453125 27.80078125 C-11.99866419 22.4667188 -11.99866419 22.4667188 -15 17 C-15.82456213 13.12176288 -15.92286636 9.71129944 -14.0078125 6.16015625 C-9.83194218 0.85602283 -6.56074685 -0.29821577 0 0 Z " fill="#30B0A1" transform="translate(334,83)"/>
<path d="M0 0 C0.9075 0.00257812 1.815 0.00515625 2.75 0.0078125 C4.11125 0.00394531 4.11125 0.00394531 5.5 0 C7.75 0.1328125 7.75 0.1328125 8.75 1.1328125 C8.83631874 2.47548663 8.85706473 3.82255572 8.84765625 5.16796875 C8.84443359 5.97685547 8.84121094 6.78574219 8.83789062 7.61914062 C8.82951172 8.46927734 8.82113281 9.31941406 8.8125 10.1953125 C8.80798828 11.04931641 8.80347656 11.90332031 8.79882812 12.78320312 C8.78700373 14.89976913 8.76906769 17.01629935 8.75 19.1328125 C4.79 19.1328125 0.83 19.1328125 -3.25 19.1328125 C-3.27683987 16.15358657 -3.29676037 13.17459955 -3.3125 10.1953125 C-3.32087891 9.34517578 -3.32925781 8.49503906 -3.33789062 7.61914062 C-3.34111328 6.81025391 -3.34433594 6.00136719 -3.34765625 5.16796875 C-3.35289307 4.419104 -3.35812988 3.67023926 -3.36352539 2.89868164 C-3.18929042 0.18848479 -2.70114171 0.15944239 0 0 Z " fill="#6AB32B" transform="translate(359.25,103.8671875)"/>
<path d="M0 0 C0.33 0 0.66 0 1 0 C0.835 0.969375 0.67 1.93875 0.5 2.9375 C-0.3539388 9.03883088 -1.10380782 15.44581759 2 21 C3.60230558 22.96646594 4.85050955 23.92525478 7.125 25.0625 C9 26 9 26 10 28 C11.88764903 28.68472665 11.88764903 28.68472665 14.0625 29.125 C14.79597656 29.29257813 15.52945312 29.46015625 16.28515625 29.6328125 C16.85105469 29.75398438 17.41695313 29.87515625 18 30 C17.67 28.02 17.34 26.04 17 24 C17.99 23.67 18.98 23.34 20 23 C20 22.34 20 21.68 20 21 C20.99 21.33 21.98 21.66 23 22 C23.33 20.68 23.66 19.36 24 18 C22.68445015 18.4495045 21.37261642 18.90989716 20.0625 19.375 C19.33160156 19.63023438 18.60070312 19.88546875 17.84765625 20.1484375 C15.81317884 20.85271413 15.81317884 20.85271413 15 23 C14.01 23 13.02 23 12 23 C11.87625 21.906875 11.7525 20.81375 11.625 19.6875 C11.24535199 15.92618198 11.24535199 15.92618198 9 13 C8.875 10.3125 8.875 10.3125 9 8 C8.34 7.67 7.68 7.34 7 7 C8.65 6.67 10.3 6.34 12 6 C11.9175 7.0725 11.835 8.145 11.75 9.25 C11.7006997 12.9590895 11.7006997 12.9590895 13.5625 15.5 C17.02033871 17.62790074 19.138193 16.91279074 23 16 C23.99 15.67 24.98 15.34 26 15 C26 19.95 26 24.9 26 30 C19.57769448 32.56892221 15.33848047 32.13508336 8.875 29.9375 C2.66962226 25.755615 -1.09752277 21.45823761 -2.625 14 C-3.30024091 8.4573975 -2.4778358 4.95567159 0 0 Z " fill="#21B49E" transform="translate(274,93)"/>
<path d="M0 0 C3.63 0 7.26 0 11 0 C11 6.27 11 12.54 11 19 C7.37 19 3.74 19 0 19 C0 12.73 0 6.46 0 0 Z " fill="#6AB32A" transform="translate(145,104)"/>
<path d="M0 0 C4.95 0 9.9 0 15 0 C15 4.29 15 8.58 15 13 C12.68802845 13.19390729 10.3753971 13.37996367 8.0625 13.5625 C6.77472656 13.66691406 5.48695313 13.77132812 4.16015625 13.87890625 C3.11730469 13.91886719 2.07445312 13.95882812 1 14 C0 13 0 13 -0.09765625 10.05859375 C-0.06510417 6.70572917 -0.03255208 3.35286458 0 0 Z " fill="#42B464" transform="translate(403,66)"/>
<path d="M0 0 C4.62 0 9.24 0 14 0 C14.1953125 9.9609375 14.1953125 9.9609375 14 13 C13.34 13.66 12.68 14.32 12 15 C7.96183055 14.96644181 4.02110368 14.42777699 0 14 C0 9.38 0 4.76 0 0 Z " fill="#45B460" transform="translate(404,92)"/>
<path d="M0 0 C0 4.62 0 9.24 0 14 C-4.62 14 -9.24 14 -14 14 C-14.09765625 4.72265625 -14.09765625 4.72265625 -14 2 C-12.45616882 0.45616882 -10.82521363 0.65791892 -8.6875 0.4375 C-7.51767578 0.31181641 -7.51767578 0.31181641 -6.32421875 0.18359375 C-4.22180671 0.01752087 -2.10896103 0 0 0 Z " fill="#43B067" transform="translate(232,110)"/>
<path d="M0 0 C4.62 0 9.24 0 14 0 C14.33 4.62 14.66 9.24 15 14 C10.05 14 5.1 14 0 14 C0 9.38 0 4.76 0 0 Z " fill="#44B460" transform="translate(218,66)"/>
<path d="M0 0 C7.00552533 0.07664689 11.63598181 1.12682455 16.71875 6.03125 C21.51745033 11.37319942 22.20956205 15.46630369 22.171875 22.5703125 C21.87869165 26.00055773 20.80240027 28.43744541 18.9375 31.3125 C18.2775 29.9925 17.6175 28.6725 16.9375 27.3125 C17.9275 27.3125 18.9175 27.3125 19.9375 27.3125 C20.2675 23.3525 20.5975 19.3925 20.9375 15.3125 C20.2775 15.3125 19.6175 15.3125 18.9375 15.3125 C18.6075 13.6625 18.2775 12.0125 17.9375 10.3125 C17.009375 10.250625 16.08125 10.18875 15.125 10.125 C11.9375 9.3125 11.9375 9.3125 10.1875 6.8125 C9.775 5.9875 9.3625 5.1625 8.9375 4.3125 C6.64120006 3.16435003 4.86051914 3.00480191 2.3125 2.75 C1.49523437 2.66621094 0.67796875 2.58242187 -0.1640625 2.49609375 C-0.79054688 2.43550781 -1.41703125 2.37492187 -2.0625 2.3125 C-2.0625 2.9725 -2.0625 3.6325 -2.0625 4.3125 C-3.0525 4.3125 -4.0425 4.3125 -5.0625 4.3125 C-5.0625 5.9625 -5.0625 7.6125 -5.0625 9.3125 C-1.7625 9.9725 1.5375 10.6325 4.9375 11.3125 C4.9375 11.9725 4.9375 12.6325 4.9375 13.3125 C6.071875 13.580625 7.20625 13.84875 8.375 14.125 C10.1384375 14.7128125 10.1384375 14.7128125 11.9375 15.3125 C12.2675 16.3025 12.5975 17.2925 12.9375 18.3125 C12.2775 18.3125 11.6175 18.3125 10.9375 18.3125 C10.81375 19.075625 10.69 19.83875 10.5625 20.625 C9.9375 23.3125 9.9375 23.3125 7.9375 26.3125 C7.2775 25.6525 6.6175 24.9925 5.9375 24.3125 C6.5975 24.3125 7.2575 24.3125 7.9375 24.3125 C7.9375 21.3425 7.9375 18.3725 7.9375 15.3125 C3.57392042 14.22160511 0.4107986 14.09605007 -4.0625 14.3125 C-4.7225 14.9725 -5.3825 15.6325 -6.0625 16.3125 C-6.25639096 13.8336787 -6.44290123 11.35469069 -6.625 8.875 C-6.68107422 8.16794922 -6.73714844 7.46089844 -6.79492188 6.73242188 C-6.92440993 4.92822163 -6.99771608 3.12018048 -7.0625 1.3125 C-5.22960552 -0.52039448 -2.46646175 0.05380341 0 0 Z " fill="#39B1A0" transform="translate(424.0625,65.6875)"/>
<path d="M0 0 C1.65 0 3.3 0 5 0 C4.01 0.33 3.02 0.66 2 1 C2.06582275 1.67579102 2.13164551 2.35158203 2.19946289 3.04785156 C2.49418097 6.1146052 2.77844822 9.18224082 3.0625 12.25 C3.16626953 13.31347656 3.27003906 14.37695312 3.37695312 15.47265625 C3.47041016 16.49746094 3.56386719 17.52226563 3.66015625 18.578125 C3.74918213 19.52075195 3.83820801 20.46337891 3.92993164 21.43457031 C4 24 4 24 3 28 C6.3 28.33 9.6 28.66 13 29 C13 19.43 13 9.86 13 0 C13.66 0 14.32 0 15 0 C15 9.9 15 19.8 15 30 C10.05 30.66 5.1 31.32 0 32 C0 21.44 0 10.88 0 0 Z " fill="#70A63E" transform="translate(218,80)"/>
<path d="M0 0 C3.09244792 0.03255208 6.18489583 0.06510417 9.27734375 0.09765625 C9.27734375 4.38765625 9.27734375 8.67765625 9.27734375 13.09765625 C4.98734375 13.09765625 0.69734375 13.09765625 -3.72265625 13.09765625 C-3.8203125 3.8203125 -3.8203125 3.8203125 -3.72265625 1.09765625 C-2.72265625 0.09765625 -2.72265625 0.09765625 0 0 Z " fill="#69B427" transform="translate(407.72265625,78.90234375)"/>
<path d="M0 0 C0.33 6.6 0.66 13.2 1 20 C-2.96 20 -6.92 20 -11 20 C-11.12023738 9.41911069 -11.12023738 9.41911069 -7.96484375 5.421875 C-1.81160072 0 -1.81160072 0 0 0 Z " fill="#41B465" transform="translate(368,83)"/>
<path d="M0 0 C0.68707031 0.28875 1.37414062 0.5775 2.08203125 0.875 C2.98308594 1.24625 3.88414062 1.6175 4.8125 2 C5.70582031 2.37125 6.59914063 2.7425 7.51953125 3.125 C10.0331433 4.16633237 10.0331433 4.16633237 13 4 C13 4.66 13 5.32 13 6 C5.04494382 6.13258427 5.04494382 6.13258427 1 5 C0.67 5.33 0.34 5.66 0 6 C0.95712891 6.16435547 0.95712891 6.16435547 1.93359375 6.33203125 C2.75988281 6.49058594 3.58617187 6.64914063 4.4375 6.8125 C5.26121094 6.96332031 6.08492188 7.11414063 6.93359375 7.26953125 C7.95646484 7.63111328 7.95646484 7.63111328 9 8 C9.33 8.99 9.66 9.98 10 11 C13.3 11.66 16.6 12.32 20 13 C17.42386056 15.57613944 15.58613999 15.93894375 12 16.3125 C6.09984391 16.26196333 0.21308103 13.60654051 -5 11 C-4.46884894 6.48521602 -2.63379708 3.65333143 0 0 Z " fill="#24B2A2" transform="translate(323,109)"/>
<path d="M0 0 C5.32385812 2.80981401 8.61619518 6.48807999 11 12 C12.53128779 20.3931906 12.37744658 29.4963505 12 38 C11 39 11 39 8.05859375 39.09765625 C3.02929688 39.04882812 3.02929688 39.04882812 -2 39 C-2.33 31.08 -2.66 23.16 -3 15 C-2.34 15 -1.68 15 -1 15 C-1 22.59 -1 30.18 -1 38 C2.63 38 6.26 38 10 38 C10 33.38 10 28.76 10 24 C9.34 24 8.68 24 8 24 C7.08342019 18.61509359 6.88861841 13.45769811 7 8 C5.9275 8.165 4.855 8.33 3.75 8.5 C0 9 0 9 -4 9 C-4 8.01 -4 7.02 -4 6 C-0.71303767 5.20046862 0.71023192 4.90341064 4 6 C2.74458443 3.48916886 1.49936512 3.12874554 -1 2 C-0.67 1.34 -0.34 0.68 0 0 Z " fill="#28B0A2" transform="translate(385,85)"/>
<path d="M0 0 C4.62 0 9.24 0 14 0 C13.67 4.29 13.34 8.58 13 13 C11.576875 13.020625 10.15375 13.04125 8.6875 13.0625 C7.48673828 13.07990234 7.48673828 13.07990234 6.26171875 13.09765625 C4 13 4 13 1 12 C0.67 8.04 0.34 4.08 0 0 Z " fill="#3FB468" transform="translate(454,110)"/>
<path d="M0 0 C2.6015625 -0.29296875 2.6015625 -0.29296875 5.625 -0.1875 C7.12933594 -0.14689453 7.12933594 -0.14689453 8.6640625 -0.10546875 C9.43492187 -0.07066406 10.20578125 -0.03585938 11 0 C10.45144652 4.571279 9.58255197 8.67435795 8 13 C4.7 13.66 1.4 14.32 -2 15 C-2.05406122 13.06280622 -2.09282025 11.12518079 -2.125 9.1875 C-2.14820313 8.10855469 -2.17140625 7.02960938 -2.1953125 5.91796875 C-2 3 -2 3 0 0 Z " fill="#1CB5A4" transform="translate(159,83)"/>
<path d="M0 0 C-0.33 4.62 -0.66 9.24 -1 14 C-0.34 14 0.32 14 1 14 C0.67 15.32 0.34 16.64 0 18 C-3.96 18 -7.92 18 -12 18 C-12 8.15763547 -12 8.15763547 -8.4140625 4.2890625 C-3.64172535 0 -3.64172535 0 0 0 Z " fill="#40B465" transform="translate(158,84)"/>
<path d="M0 0 C1.95766281 -0.08082094 3.91626728 -0.13910778 5.875 -0.1875 C7.51082031 -0.23970703 7.51082031 -0.23970703 9.1796875 -0.29296875 C10.11039063 -0.19628906 11.04109375 -0.09960938 12 0 C12.66 0.99 13.32 1.98 14 3 C15.99285937 3.37366113 17.99363529 3.70740515 20 4 C20.66 4.66 21.32 5.32 22 6 C20.02 6.99 18.04 7.98 16 9 C16 8.34 16 7.68 16 7 C14.35 7 12.7 7 11 7 C11 7.66 11 8.32 11 9 C12.32 9.33 13.64 9.66 15 10 C14.34 10 13.68 10 13 10 C13 10.66 13 11.32 13 12 C11.0625 11.1875 11.0625 11.1875 9 10 C8.67 9.01 8.34 8.02 8 7 C7.608125 7.495 7.21625 7.99 6.8125 8.5 C5 10 5 10 0 10 C0 6.7 0 3.4 0 0 Z " fill="#1CB6A4" transform="translate(233,67)"/>
<path d="M0 0 C3.63 0 7.26 0 11 0 C10.67 3.96 10.34 7.92 10 12 C8.35 12.33 6.7 12.66 5 13 C5 13.66 5 14.32 5 15 C3.35 15 1.7 15 0 15 C0 10.05 0 5.1 0 0 Z " fill="#68B427" transform="translate(405,106)"/>
<path d="M0 0 C2.39614126 -0.05425226 4.79103853 -0.09379027 7.1875 -0.125 C8.19780273 -0.15013672 8.19780273 -0.15013672 9.22851562 -0.17578125 C13.28807807 -0.21538674 16.34998815 0.19979998 20 2 C20 2.33 20 2.66 20 3 C7.33029613 2.03644647 7.33029613 2.03644647 2 1 C2 4.3 2 7.6 2 11 C3.98 11 5.96 11 8 11 C8.33 10.34 8.66 9.68 9 9 C9.99 9.33 10.98 9.66 12 10 C12 10.66 12 11.32 12 12 C13.32 12 14.64 12 16 12 C16 11.34 16 10.68 16 10 C19 8 19 8 22 8 C21.34 9.32 20.68 10.64 20 12 C19.34 12 18.68 12 18 12 C18.70339566 14.50965614 18.70339566 14.50965614 20 17 C22.04105639 17.88693303 22.04105639 17.88693303 24 18 C23.34 19.32 22.68 20.64 22 22 C21.195625 20.8553125 21.195625 20.8553125 20.375 19.6875 C15.48232605 14.15105316 10.01602305 13.45214371 3 13 C2.67 14.32 2.34 15.64 2 17 C0.14868517 13.07142246 -0.22004943 10.01224888 -0.125 5.6875 C-0.10695313 4.61886719 -0.08890625 3.55023438 -0.0703125 2.44921875 C-0.04710937 1.64097656 -0.02390625 0.83273438 0 0 Z " fill="#37B19C" transform="translate(466,66)"/>
<path d="M0 0 C0.99 0.66 1.98 1.32 3 2 C2.01 2.33 1.02 2.66 0 3 C0 3.66 0 4.32 0 5 C-2.90600261 6.25664978 -4.79604584 7 -8 7 C-8 7.66 -8 8.32 -8 9 C-8.66 9 -9.32 9 -10 9 C-10 8.34 -10 7.68 -10 7 C-11.45742463 6.91903197 -12.91612807 6.86082226 -14.375 6.8125 C-15.59316406 6.76029297 -15.59316406 6.76029297 -16.8359375 6.70703125 C-17.55007813 6.80371094 -18.26421875 6.90039062 -19 7 C-19.99 8.485 -19.99 8.485 -21 10 C-21.66 10 -22.32 10 -23 10 C-21.25385113 5.55525742 -18.3643147 3.23531646 -14.17578125 1.046875 C-9.04392629 -1.17121555 -5.44780609 -1.20036405 0 0 Z " fill="#1BB6A5" transform="translate(298,83)"/>
<path d="M0 0 C0.33 1.32 0.66 2.64 1 4 C0.01 4 -0.98 4 -2 4 C-3.9359963 8.08024718 -4.29784538 11.43853306 -4.3125 15.9375 C-4.32925781 17.12214844 -4.34601563 18.30679688 -4.36328125 19.52734375 C-3.96266593 23.35688156 -3.06114244 25.76106188 -1 29 C-0.01 29.33 0.98 29.66 2 30 C2.33 30.66 2.66 31.32 3 32 C3.763125 31.505 4.52625 31.01 5.3125 30.5 C8 29 8 29 11 29 C10.34 30.98 9.68 32.96 9 35 C12.96 35.33 16.92 35.66 21 36 C15.87433421 38.56283289 12.49974997 38.27997184 7 37 C1.0801775 34.38355968 -3.32181425 30.61782797 -6.078125 24.67578125 C-8.13835393 18.69587948 -7.94250645 12.21056893 -5.1875 6.5 C-3.76531604 3.92808111 -2.13982925 2.01107161 0 0 Z " fill="#3DAFA2" transform="translate(178,87)"/>
<path d="M0 0 C1.125 3.75 1.125 3.75 0 6 C1.13179687 5.84402344 2.26359375 5.68804687 3.4296875 5.52734375 C4.91141532 5.33040524 6.39318857 5.13380835 7.875 4.9375 C8.62136719 4.83373047 9.36773437 4.72996094 10.13671875 4.62304688 C15.7734375 3.88671875 15.7734375 3.88671875 18 5 C17.67 8.3 17.34 11.6 17 15 C17.66 15 18.32 15 19 15 C18.979375 13.72125 18.95875 12.4425 18.9375 11.125 C18.875 7.25 18.875 7.25 20 5 C22.06242617 4.97282308 24.12495703 4.9535242 26.1875 4.9375 C27.33605469 4.92589844 28.48460938 4.91429688 29.66796875 4.90234375 C32.59300586 4.98807168 35.16316291 5.32150977 38 6 C38.33 5.34 38.66 4.68 39 4 C39 4.99 39 5.98 39 7 C33.06 7 27.12 7 21 7 C21 10.3 21 13.6 21 17 C19.35 16.67 17.7 16.34 16 16 C16 13.03 16 10.06 16 7 C10.06 7 4.12 7 -2 7 C-1 2 -1 2 0 0 Z " fill="#40ABA0" transform="translate(54,108)"/>
<path d="M0 0 C4.37219175 4.01768972 7.70774127 7.71208933 8.25 13.8125 C8 16 8 16 7 17 C4.98035801 17.07244053 2.95832876 17.08377188 0.9375 17.0625 C-0.16722656 17.05347656 -1.27195312 17.04445313 -2.41015625 17.03515625 C-3.26480469 17.02355469 -4.11945313 17.01195313 -5 17 C-5.29390625 16.20335938 -5.5878125 15.40671875 -5.890625 14.5859375 C-6.77747514 11.94886111 -6.77747514 11.94886111 -8.75 10.625 C-12.397815 9.61171806 -15.64969213 10.32484606 -19 12 C-19 10.35 -19 8.7 -19 7 C-14.38 7.66 -9.76 8.32 -5 9 C-4.67 10.98 -4.34 12.96 -4 15 C-0.7 15 2.6 15 6 15 C6 13.68 6 12.36 6 11 C5.38125 10.95875 4.7625 10.9175 4.125 10.875 C2 10 2 10 0.75 7.1875 C0 4 0 4 0 0 Z " fill="#33B196" transform="translate(305,87)"/>
<path d="M0 0 C0.78503906 -0.00257812 1.57007813 -0.00515625 2.37890625 -0.0078125 C4.4375 0.125 4.4375 0.125 6.4375 1.125 C6.4375 11.025 6.4375 20.925 6.4375 31.125 C5.4475 30.795 4.4575 30.465 3.4375 30.125 C3.7675 29.795 4.0975 29.465 4.4375 29.125 C4.58386054 25.75870749 4.50943479 23.34080438 3.4375 20.125 C3.41577148 18.13208008 3.41577148 18.13208008 3.55859375 15.89453125 C3.60693359 15.09208984 3.65527344 14.28964844 3.70507812 13.46289062 C3.76115234 12.62951172 3.81722656 11.79613281 3.875 10.9375 C3.92720703 10.09251953 3.97941406 9.24753906 4.03320312 8.37695312 C4.16273689 6.29263701 4.29943177 4.20876818 4.4375 2.125 C0.8075 2.125 -2.8225 2.125 -6.5625 2.125 C-6.5625 11.695 -6.5625 21.265 -6.5625 31.125 C-6.8925 31.125 -7.2225 31.125 -7.5625 31.125 C-7.5625 21.225 -7.5625 11.325 -7.5625 1.125 C-4.73533905 0.18261302 -2.93073877 -0.00965647 0 0 Z " fill="#6CAD3A" transform="translate(461.5625,78.875)"/>
<path d="M0 0 C0.66 0.33 1.32 0.66 2 1 C2 5.29 2 9.58 2 14 C1.01 14 0.02 14 -1 14 C-1.37125 13.319375 -1.7425 12.63875 -2.125 11.9375 C-4.53129338 8.16764037 -7.56016266 6.07707364 -11.13671875 3.453125 C-11.75160156 2.97359375 -12.36648437 2.4940625 -13 2 C-13 1.67 -13 1.34 -13 1 C-12.31292969 1.01160156 -11.62585938 1.02320312 -10.91796875 1.03515625 C-9.56638672 1.04869141 -9.56638672 1.04869141 -8.1875 1.0625 C-6.84751953 1.07990234 -6.84751953 1.07990234 -5.48046875 1.09765625 C-2.86586209 1.11009967 -2.86586209 1.11009967 0 0 Z " fill="#60B43A" transform="translate(137,82)"/>
<path d="M0 0 C1.06734375 0.24363281 1.06734375 0.24363281 2.15625 0.4921875 C5.00338849 1.00060509 7.61104691 1.13311504 10.5 1.125 C11.4178125 1.12757813 12.335625 1.13015625 13.28125 1.1328125 C16.40396891 1.04750553 16.40396891 1.04750553 21 0 C22.65 3.96 24.3 7.92 26 12 C23 14 23 14 20.8125 13.625 C20.214375 13.41875 19.61625 13.2125 19 13 C19.33 12.34 19.66 11.68 20 11 C20 9.68 20 8.36 20 7 C16.65457283 5.32728642 13.67963509 4.8020596 10 4.5 C6.32036491 4.1979404 3.34542717 3.67271358 0 2 C0 1.34 0 0.68 0 0 Z " fill="#2DAEA2" transform="translate(106,129)"/>
<path d="M0 0 C0.33 0.66 0.66 1.32 1 2 C1.66 2 2.32 2 3 2 C3 2.66 3 3.32 3 4 C1.68 4 0.36 4 -1 4 C-1 4.66 -1 5.32 -1 6 C-0.01 6 0.98 6 2 6 C2.66 8.31 3.32 10.62 4 13 C0.7 13 -2.6 13 -6 13 C-6.125 4.375 -6.125 4.375 -5 1 C-3.35 0.67 -1.7 0.34 0 0 Z " fill="#1BB6A5" transform="translate(441,110)"/>
<path d="M0 0 C0.33 0 0.66 0 1 0 C0.835 0.969375 0.67 1.93875 0.5 2.9375 C-0.3539388 9.03883088 -1.10380782 15.44581759 2 21 C3.60230558 22.96646594 4.85050955 23.92525478 7.125 25.0625 C9 26 9 26 10 28 C11.88764903 28.68472665 11.88764903 28.68472665 14.0625 29.125 C14.79597656 29.29257813 15.52945312 29.46015625 16.28515625 29.6328125 C16.85105469 29.75398438 17.41695313 29.87515625 18 30 C18 29.34 18 28.68 18 28 C20.375 27.8125 20.375 27.8125 23 28 C23.66 28.99 24.32 29.98 25 31 C18.26849648 32.17534189 13.13508261 32.28545408 7 29 C1.09701061 24.43502154 -1.60040434 19.99756146 -2.8125 12.6875 C-3.3080242 7.76529295 -2.02713925 4.45970634 0 0 Z " fill="#3DADA1" transform="translate(274,93)"/>
<path d="M0 0 C4.97306516 0.49730652 8.63799813 1.55302334 13 4 C12.38545304 7.99455527 10.29353263 10.74466336 8 14 C4.30099992 13.11223998 0.65449539 12.05418136 -3 11 C-2.443125 10.731875 -1.88625 10.46375 -1.3125 10.1875 C-0.549375 9.795625 0.21375 9.40375 1 9 C1.9075 8.54625 2.815 8.0925 3.75 7.625 C4.4925 7.08875 5.235 6.5525 6 6 C6 4.68 6 3.36 6 2 C4.02 2 2.04 2 0 2 C0 1.34 0 0.68 0 0 Z " fill="#33AD9F" transform="translate(336,83)"/>
<path d="M0 0 C1.28566729 2.57133459 1.12009778 4.397171 1.11352539 7.27587891 C1.11341209 8.92736435 1.11341209 8.92736435 1.11329651 10.61221313 C1.10813522 11.80494843 1.10297394 12.99768372 1.09765625 14.2265625 C1.0962413 15.44451508 1.09482635 16.66246765 1.09336853 17.91732788 C1.08775639 21.8199099 1.07520179 25.72243523 1.0625 29.625 C1.05748657 32.26562417 1.05292339 34.90624924 1.04882812 37.546875 C1.037783 44.03127195 1.02051018 50.51562635 1 57 C4.96 57.33 8.92 57.66 13 58 C13 58.33 13 58.66 13 59 C8.38 59 3.76 59 -1 59 C-1.02255549 51.45501411 -1.04091769 43.91004069 -1.05181217 36.36502934 C-1.05703989 32.86191115 -1.0641355 29.35881715 -1.07543945 25.85571289 C-1.08834206 21.83219159 -1.09322912 17.80869586 -1.09765625 13.78515625 C-1.10539818 11.88987938 -1.10539818 11.88987938 -1.11329651 9.95631409 C-1.11337204 8.795186 -1.11344757 7.63405792 -1.11352539 6.43774414 C-1.11685631 4.8955294 -1.11685631 4.8955294 -1.12025452 3.32215881 C-1 1 -1 1 0 0 Z " fill="#72A063" transform="translate(454,65)"/>
<path d="M0 0 C8.59141782 -0.43995881 15.46853452 -0.46309065 23 4 C23 4.33 23 4.66 23 5 C20.03 5 17.06 5 14 5 C13.67 3.68 13.34 2.36 13 1 C9.04 1 5.08 1 1 1 C1 4.3 1 7.6 1 11 C5.07964281 9.69844994 5.07964281 9.69844994 9 8 C9 8.66 9 9.32 9 10 C9.66 10.33 10.32 10.66 11 11 C12.0194119 11.98020375 13.02246356 12.97803008 14 14 C11.85423363 14.02685938 9.70837355 14.04633088 7.5625 14.0625 C6.36753906 14.07410156 5.17257813 14.08570312 3.94140625 14.09765625 C1 14 1 14 0 13 C-0.07258946 10.81360547 -0.08373783 8.62499611 -0.0625 6.4375 C-0.05347656 5.23996094 -0.04445312 4.04242188 -0.03515625 2.80859375 C-0.02355469 1.88175781 -0.01195312 0.95492187 0 0 Z " fill="#39B09B" transform="translate(232,66)"/>
<path d="M0 0 C2.19050021 0.09017996 4.378466 0.24666208 6.5625 0.4375 C9.7490625 0.7159375 9.7490625 0.7159375 13 1 C13 7.6 13 14.2 13 21 C12.67 21 12.34 21 12 21 C12 14.73 12 8.46 12 2 C8.37 2 4.74 2 1 2 C1.165 3.2375 1.33 4.475 1.5 5.75 C2.39602189 14.45781841 2.08271505 23.25765509 2 32 C1.34 32 0.68 32 0 32 C0.01160156 30.92621094 0.02320313 29.85242188 0.03515625 28.74609375 C0.04454315 27.30989759 0.05364238 25.87369952 0.0625 24.4375 C0.07087891 23.73302734 0.07925781 23.02855469 0.08789062 22.30273438 C0.10878331 17.76902241 -0.30277103 13.49145175 -1 9 C-1.14966233 6.29727435 -1.09355605 3.71312548 -1 1 C-0.67 0.67 -0.34 0.34 0 0 Z " fill="#75A944" transform="translate(356,63)"/>
<path d="M0 0 C0.66 0 1.32 0 2 0 C5.22265625 5.2734375 5.22265625 5.2734375 6 7 C5.67 7.66 5.34 8.32 5 9 C4.34 8.67 3.68 8.34 3 8 C3 7.01 3 6.02 3 5 C1.68 5 0.36 5 -1 5 C-0.938125 6.11375 -0.87625 7.2275 -0.8125 8.375 C-0.874375 9.57125 -0.93625 10.7675 -1 12 C-1.99 12.66 -2.98 13.32 -4 14 C-4.33 14.66 -4.66 15.32 -5 16 C-5.99414593 17.67016516 -6.9935725 19.33720673 -8 21 C-8.66 20.67 -9.32 20.34 -10 20 C-9.690625 19.2575 -9.38125 18.515 -9.0625 17.75 C-7.98541751 15.1881097 -7.98541751 15.1881097 -7.62109375 13.15234375 C-6.82587768 10.39659499 -5.49975458 8.25320637 -4 5.8125 C-3.46375 4.93207031 -2.9275 4.05164063 -2.375 3.14453125 C-1 1 -1 1 0 0 Z " fill="#31B6A5" transform="translate(72,68)"/>
<path d="M0 0 C3.09244792 0.03255208 6.18489583 0.06510417 9.27734375 0.09765625 C9.27734375 4.38765625 9.27734375 8.67765625 9.27734375 13.09765625 C4.98734375 13.09765625 0.69734375 13.09765625 -3.72265625 13.09765625 C-3.8203125 3.8203125 -3.8203125 3.8203125 -3.72265625 1.09765625 C-2.72265625 0.09765625 -2.72265625 0.09765625 0 0 Z M-2.72265625 2.09765625 C-2.72265625 5.39765625 -2.72265625 8.69765625 -2.72265625 12.09765625 C0.57734375 12.09765625 3.87734375 12.09765625 7.27734375 12.09765625 C7.27734375 10.44765625 7.27734375 8.79765625 7.27734375 7.09765625 C5.62734375 7.09765625 3.97734375 7.09765625 2.27734375 7.09765625 C2.27734375 6.43765625 2.27734375 5.77765625 2.27734375 5.09765625 C3.92734375 5.09765625 5.57734375 5.09765625 7.27734375 5.09765625 C7.27734375 4.10765625 7.27734375 3.11765625 7.27734375 2.09765625 C3.97734375 2.09765625 0.67734375 2.09765625 -2.72265625 2.09765625 Z " fill="#6AB23A" transform="translate(407.72265625,78.90234375)"/>
<path d="M0 0 C1.53333984 0.01353516 1.53333984 0.01353516 3.09765625 0.02734375 C5.60701522 0.0507957 8.11588336 0.08361645 10.625 0.125 C8.625 2.125 8.625 2.125 6.2421875 2.3203125 C5.33726562 2.29710938 4.43234375 2.27390625 3.5 2.25 C2.58992188 2.23195313 1.67984375 2.21390625 0.7421875 2.1953125 C0.04351562 2.17210938 -0.65515625 2.14890625 -1.375 2.125 C-1.045 3.115 -0.715 4.105 -0.375 5.125 C-0.931875 4.83625 -1.48875 4.5475 -2.0625 4.25 C-4.44614743 3.09038773 -6.91384039 2.10946384 -9.375 1.125 C-9.375 5.085 -9.375 9.045 -9.375 13.125 C-8.055 13.455 -6.735 13.785 -5.375 14.125 C-8.26734315 14.95138376 -10.26242431 15.125 -13.375 15.125 C-13.375 14.465 -13.375 13.805 -13.375 13.125 C-12.385 13.125 -11.395 13.125 -10.375 13.125 C-10.375 9.825 -10.375 6.525 -10.375 3.125 C-13.675 3.785 -16.975 4.445 -20.375 5.125 C-14.45239531 -0.79760469 -7.8927125 -0.13239389 0 0 Z " fill="#42B49C" transform="translate(125.375,81.875)"/>
<path d="M0 0 C2.6015625 -0.29296875 2.6015625 -0.29296875 5.625 -0.1875 C7.12933594 -0.14689453 7.12933594 -0.14689453 8.6640625 -0.10546875 C9.43492187 -0.07066406 10.20578125 -0.03585938 11 0 C10.45144652 4.571279 9.58255197 8.67435795 8 13 C4.7 13.66 1.4 14.32 -2 15 C-2.05406122 13.06280622 -2.09282025 11.12518079 -2.125 9.1875 C-2.14820313 8.10855469 -2.17140625 7.02960938 -2.1953125 5.91796875 C-2 3 -2 3 0 0 Z M0 2 C0 4.97 0 7.94 0 11 C2.70879335 12.35439668 5.00933268 12.06501451 8 12 C8.33 8.7 8.66 5.4 9 2 C6.03 2 3.06 2 0 2 Z " fill="#3BAA9B" transform="translate(159,83)"/>
<path d="M0 0 C0 3 0 3 -1 5.8125 C-2.02180756 9.06951159 -2.16134036 11.61185252 -2 15 C-1.34 15.33 -0.68 15.66 0 16 C-0.33 16.99 -0.66 17.98 -1 19 C-1.66 19 -2.32 19 -3 19 C-3 21.31 -3 23.62 -3 26 C-5.7553053 23.12489881 -6.75715183 20.31877899 -7.13671875 16.359375 C-6.83073402 11.07895275 -4.92345265 5.13869616 -1.359375 1.17578125 C-0.91078125 0.78777344 -0.4621875 0.39976563 0 0 Z " fill="#37B4A6" transform="translate(102,88)"/>
<path d="M0 0 C0.66 0.33 1.32 0.66 2 1 C1.34 4.96 0.68 8.92 0 13 C-1.32 13.33 -2.64 13.66 -4 14 C-3.67 13.01 -3.34 12.02 -3 11 C-3.66 11 -4.32 11 -5 11 C-5.33 12.32 -5.66 13.64 -6 15 C-6.99 14.67 -7.98 14.34 -9 14 C-8.01772332 7.6697725 -6.55137922 4.93738487 -1.4609375 1.03125 C-0.73777344 0.52078125 -0.73777344 0.52078125 0 0 Z " fill="#45B45B" transform="translate(155,84)"/>
<path d="M0 0 C0.66 0 1.32 0 2 0 C2 7.59 2 15.18 2 23 C5.63 23 9.26 23 13 23 C13 18.38 13 13.76 13 9 C12.34 9 11.68 9 11 9 C10.67 7.68 10.34 6.36 10 5 C10.66 4.67 11.32 4.34 12 4 C12.33 4.66 12.66 5.32 13 6 C13.66 5.01 14.32 4.02 15 3 C15.02888146 6.31248187 15.04675799 9.62493167 15.0625 12.9375 C15.07087891 13.88302734 15.07925781 14.82855469 15.08789062 15.80273438 C15.09111328 16.70185547 15.09433594 17.60097656 15.09765625 18.52734375 C15.10289307 19.35999756 15.10812988 20.19265137 15.11352539 21.05053711 C15 23 15 23 14 24 C9.66469082 24.14393457 5.33842269 24.04212061 1 24 C0.67 16.08 0.34 8.16 0 0 Z " fill="#4EB1A5" transform="translate(382,100)"/>
<path d="M0 0 C0.33 1.32 0.66 2.64 1 4 C0.01 4.495 0.01 4.495 -1 5 C-1 4.01 -1 3.02 -1 2 C-4.3 2 -7.6 2 -11 2 C-10.67 3.32 -10.34 4.64 -10 6 C-8.68 6.33 -7.36 6.66 -6 7 C-6 7.66 -6 8.32 -6 9 C-6.66 9 -7.32 9 -8 9 C-7.9175 10.093125 -7.835 11.18625 -7.75 12.3125 C-7.8325 13.529375 -7.915 14.74625 -8 16 C-10.015625 17.73046875 -10.015625 17.73046875 -12 19 C-12.19430855 16.3753399 -12.38073238 13.75053235 -12.5625 11.125 C-12.61857422 10.37863281 -12.67464844 9.63226563 -12.73242188 8.86328125 C-13.11328125 3.2265625 -13.11328125 3.2265625 -12 1 C-9.27734375 0.5859375 -9.27734375 0.5859375 -5.9375 0.375 C-4.83277344 0.30023438 -3.72804688 0.22546875 -2.58984375 0.1484375 C-1.73519531 0.09945312 -0.88054687 0.05046875 0 0 Z " fill="#42B16B" transform="translate(312,103)"/>
<path d="M0 0 C5.39496072 1.67742476 9.35660257 4.67346556 13 9 C13 9.66 13 10.32 13 11 C11.35 11 9.7 11 8 11 C7.67 9.35 7.34 7.7 7 6 C6.34 6 5.68 6 5 6 C4.566875 5.525625 4.13375 5.05125 3.6875 4.5625 C1.55306267 2.58616914 -0.16307947 2.38336764 -3 2 C-3.33 2.66 -3.66 3.32 -4 4 C-4 3.34 -4 2.68 -4 2 C-7.3 2 -10.6 2 -14 2 C-9.50945175 -0.99369883 -5.26447516 -0.5833413 0 0 Z " fill="#36A99B" transform="translate(197,83)"/>
<path d="M0 0 C1.31223496 3.93670488 0.24296256 6.12488144 -1 10 C-0.67 9.01 -0.34 8.02 0 7 C2.31 7 4.62 7 7 7 C7 7.99 7 8.98 7 10 C6.01 10 5.02 10 4 10 C4 10.66 4 11.32 4 12 C9.28 12 14.56 12 20 12 C20 12.33 20 12.66 20 13 C17.29139335 13.05429278 14.58389099 13.09381211 11.875 13.125 C11.11445312 13.14175781 10.35390625 13.15851563 9.5703125 13.17578125 C4.96729269 13.21546246 1.33535996 12.75907577 -3 11 C-2.44894091 7.0507432 -1.61064629 3.65079826 0 0 Z " fill="#34AFA1" transform="translate(105,131)"/>
<path d="M0 0 C5.93861473 1.79958022 10.35841757 5.72296631 13.9375 10.6875 C15 13 15 13 15 16 C14.34 16 13.68 16 13 16 C12.67 14.35 12.34 12.7 12 11 C11.01 11 10.02 11 9 11 C8.34 11.66 7.68 12.32 7 13 C5.5393715 10.35261084 5 9.10551666 5 6 C4.01 5.34 3.02 4.68 2 4 C2.33 3.34 2.66 2.68 3 2 C2.01 1.67 1.02 1.34 0 1 C0 0.67 0 0.34 0 0 Z " fill="#34B5A5" transform="translate(486,69)"/>
<path d="M0 0 C1.32 0 2.64 0 4 0 C3.9175 1.0725 3.835 2.145 3.75 3.25 C3.7100488 6.94771372 3.7100488 6.94771372 5.5 9.5 C9.26652526 11.75991516 11.75657498 10.848685 16 10 C16 10.66 16 11.32 16 12 C15.43410156 12.19335938 14.86820312 12.38671875 14.28515625 12.5859375 C13.55167969 12.84632812 12.81820313 13.10671875 12.0625 13.375 C11.33160156 13.63023438 10.60070312 13.88546875 9.84765625 14.1484375 C7.81317884 14.85271413 7.81317884 14.85271413 7 17 C6.01 17 5.02 17 4 17 C3.87625 15.906875 3.7525 14.81375 3.625 13.6875 C3.24535199 9.92618198 3.24535199 9.92618198 1 7 C0.875 4.3125 0.875 4.3125 1 2 C0.34 1.67 -0.32 1.34 -1 1 C-0.67 0.67 -0.34 0.34 0 0 Z " fill="#35B2A2" transform="translate(282,99)"/>
<path d="M0 0 C1.03060547 0.25136719 1.03060547 0.25136719 2.08203125 0.5078125 C2.98308594 0.71148437 3.88414063 0.91515625 4.8125 1.125 C6.15248047 1.43824219 6.15248047 1.43824219 7.51953125 1.7578125 C10.25246634 2.28880522 10.25246634 2.28880522 13 0 C14.32 0 15.64 0 17 0 C17 0.99 17 1.98 17 3 C14 4 14 4 12 4 C12.33 4.99 12.66 5.98 13 7 C11.20767663 6.69128878 9.41615679 6.37790936 7.625 6.0625 C6.62726563 5.88847656 5.62953125 5.71445313 4.6015625 5.53515625 C2 5 2 5 0 4 C0 2.68 0 1.36 0 0 Z " fill="#35B7A9" transform="translate(105,118)"/>
<path d="M0 0 C0 0.99 0 1.98 0 3 C-1.423125 4.299375 -1.423125 4.299375 -2.875 5.625 C-6.78756029 9.27918366 -7.21341493 12.80853851 -8 18 C-4.7 18 -1.4 18 2 18 C2 18.66 2 19.32 2 20 C-1.96 20 -5.92 20 -10 20 C-10.1205074 9.39534884 -10.1205074 9.39534884 -6.9296875 5.421875 C-4.6929301 3.47260053 -2.44476874 1.6792351 0 0 Z " fill="#49B159" transform="translate(367,83)"/>
<path d="M0 0 C0.99 0 1.98 0 3 0 C3.33 0.66 3.66 1.32 4 2 C4.99 1.67 5.98 1.34 7 1 C7 1.66 7 2.32 7 3 C7.66 3 8.32 3 9 3 C9.33 2.34 9.66 1.68 10 1 C10.99 1 11.98 1 13 1 C13 1.66 13 2.32 13 3 C13.66 3 14.32 3 15 3 C15 3.66 15 4.32 15 5 C13.68 5 12.36 5 11 5 C11 5.66 11 6.32 11 7 C10.38125 6.79375 9.7625 6.5875 9.125 6.375 C8.42375 6.25125 7.7225 6.1275 7 6 C6.34 6.66 5.68 7.32 5 8 C2.5 5.6875 2.5 5.6875 0 3 C0 2.01 0 1.02 0 0 Z " fill="#24B2A2" transform="translate(99,113)"/>
<path d="M0 0 C3.96 0 7.92 0 12 0 C11.67 6.93 11.34 13.86 11 21 C10.34 21 9.68 21 9 21 C9 14.73 9 8.46 9 2 C6.03 1.67 3.06 1.34 0 1 C0 0.67 0 0.34 0 0 Z " fill="#64B530" transform="translate(219,79)"/>
<path d="M0 0 C4.62 0 9.24 0 14 0 C14 3.96 14 7.92 14 12 C13.67 12 13.34 12 13 12 C13 10.02 13 8.04 13 6 C11.02 6 9.04 6 7 6 C7.33 5.34 7.66 4.68 8 4 C8.66 4 9.32 4 10 4 C10 3.01 10 2.02 10 1 C7.03 1 4.06 1 1 1 C1 5.29 1 9.58 1 14 C0.67 14 0.34 14 0 14 C0 9.38 0 4.76 0 0 Z " fill="#48AC6C" transform="translate(218,66)"/>
<path d="M0 0 C0.66 0.33 1.32 0.66 2 1 C1.67 1.66 1.34 2.32 1 3 C1.99 3 2.98 3 4 3 C3.67 4.32 3.34 5.64 3 7 C3.66 7 4.32 7 5 7 C5 7.66 5 8.32 5 9 C6.32 9.33 7.64 9.66 9 10 C3.06 10.495 3.06 10.495 -3 11 C-2.4140625 3.28515625 -2.4140625 3.28515625 -2 1 C-1.34 0.67 -0.68 0.34 0 0 Z " fill="#45B45C" transform="translate(407,69)"/>
<path d="M0 0 C0.99 0.66 1.98 1.32 3 2 C-2.28 2 -7.56 2 -13 2 C-13 3.65 -13 5.3 -13 7 C-13.94875 6.938125 -14.8975 6.87625 -15.875 6.8125 C-17.421875 6.9053125 -17.421875 6.9053125 -19 7 C-19.99 8.485 -19.99 8.485 -21 10 C-21.66 10 -22.32 10 -23 10 C-21.25385113 5.55525742 -18.3643147 3.23531646 -14.17578125 1.046875 C-9.04392629 -1.17121555 -5.44780609 -1.20036405 0 0 Z " fill="#48B6A7" transform="translate(298,83)"/>
<path d="M0 0 C5.20028252 1.68244434 9.54520192 4.55329414 12.375 9.3125 C12.58125 9.869375 12.7875 10.42625 13 11 C10.36 11 7.72 11 5 11 C5 9.35 5 7.7 5 6 C4.01 6 3.02 6 2 6 C1.34 4.02 0.68 2.04 0 0 Z " fill="#49B457" transform="translate(123,84)"/>
<path d="M0 0 C0.66 0 1.32 0 2 0 C3.48466626 8.36811889 2.3610871 14.62761648 -1.6875 22.125 C-2.120625 22.74375 -2.55375 23.3625 -3 24 C-3.33 23.34 -3.66 22.68 -4 22 C-4.66 21.67 -5.32 21.34 -6 21 C-4.68 20.67 -3.36 20.34 -2 20 C-2.061875 18.081875 -2.061875 18.081875 -2.125 16.125 C-2.1953125 13.9453125 -2.1953125 13.9453125 -2 12 C-1.34 11.34 -0.68 10.68 0 10 C0.24287489 7.55987051 0.24287489 7.55987051 0.125 4.875 C0.09792969 3.50988281 0.09792969 3.50988281 0.0703125 2.1171875 C0.04710937 1.41851562 0.02390625 0.71984375 0 0 Z " fill="#41B1A4" transform="translate(501,88)"/>
<path d="M0 0 C0.99 0 1.98 0 3 0 C3.33 1.98 3.66 3.96 4 6 C4.66 6 5.32 6 6 6 C6 7.65 6 9.3 6 11 C5.34 11 4.68 11 4 11 C3.67 11.66 3.34 12.32 3 13 C2.01 13 1.02 13 0 13 C0 8.71 0 4.42 0 0 Z " fill="#21B596" transform="translate(368,84)"/>
<path d="M0 0 C0.33 0.66 0.66 1.32 1 2 C-3.95 3.485 -3.95 3.485 -9 5 C-9.33 7.31 -9.66 9.62 -10 12 C-8.35 12 -6.7 12 -5 12 C-5 12.33 -5 12.66 -5 13 C-6.99954746 13.04254356 -9.00041636 13.04080783 -11 13 C-12 12 -12 12 -12.1328125 9.75 C-12.13023437 8.8425 -12.12765625 7.935 -12.125 7 C-12.12757813 6.0925 -12.13015625 5.185 -12.1328125 4.25 C-12 2 -12 2 -11 1 C-9.15108054 0.76636119 -7.29511969 0.58696365 -5.4375 0.4375 C-4.42558594 0.35371094 -3.41367187 0.26992187 -2.37109375 0.18359375 C-1.58863281 0.12300781 -0.80617188 0.06242187 0 0 Z " fill="#27B096" transform="translate(429,91)"/>
<path d="M0 0 C2.64 0 5.28 0 8 0 C8 0.33 8 0.66 8 1 C5.69 1 3.38 1 1 1 C1 4.63 1 8.26 1 12 C4.3 12 7.6 12 11 12 C11.33 11.34 11.66 10.68 12 10 C12.66 10 13.32 10 14 10 C14.33 9.34 14.66 8.68 15 8 C15 8.99 15 9.98 15 11 C16.32 11.33 17.64 11.66 19 12 C12.58869851 14.33138236 6.804359 14.15290694 0 14 C0 9.38 0 4.76 0 0 Z " fill="#4DB6A6" transform="translate(232,110)"/>
<path d="M0 0 C4.29 0 8.58 0 13 0 C12.34 2.64 11.68 5.28 11 8 C10.01 8 9.02 8 8 8 C8 6.35 8 4.7 8 3 C5.69 3 3.38 3 1 3 C0.67 2.01 0.34 1.02 0 0 Z " fill="#4CB354" transform="translate(454,110)"/>
<path d="M0 0 C3.01502371 4.52253557 3.48566676 9.05743081 2.6015625 14.4140625 C1.00738928 20.02180123 -1.22670563 22.71173054 -6 26 C-6.33 25.01 -6.66 24.02 -7 23 C-5.68 22.67 -4.36 22.34 -3 22 C-3 20.68 -3 19.36 -3 18 C-2.34 18 -1.68 18 -1 18 C-1 16.68 -1 15.36 -1 14 C-0.34 14 0.32 14 1 14 C0.67 9.38 0.34 4.76 0 0 Z " fill="#38AC9E" transform="translate(210,94)"/>
<path d="M0 0 C0.33 0 0.66 0 1 0 C1.20413361 5.73842251 1.27141454 10.60539047 -1 16 C-1.99 16 -2.98 16 -4 16 C-4 16.66 -4 17.32 -4 18 C-4.66 18 -5.32 18 -6 18 C-5.566875 16.7625 -5.566875 16.7625 -5.125 15.5 C-4.30366651 12.94474024 -3.61415602 10.4778517 -3 7.875 C-2.31154895 5.02284565 -1.4900102 2.55430321 0 0 Z " fill="#36B2A4" transform="translate(61,90)"/>
<path d="M0 0 C1.32 0 2.64 0 4 0 C4.33 0.99 4.66 1.98 5 3 C5.68707031 3.03738281 6.37414062 3.07476562 7.08203125 3.11328125 C7.98308594 3.17902344 8.88414062 3.24476562 9.8125 3.3125 C11.15248047 3.39951172 11.15248047 3.39951172 12.51953125 3.48828125 C15.30604 4.06313581 16.24135754 4.8206856 18 7 C17.34 7.66 16.68 8.32 16 9 C15.525625 8.484375 15.05125 7.96875 14.5625 7.4375 C10.69002384 5.26513533 7.24770076 6.24666846 3 7 C3 6.34 3 5.68 3 5 C2.34 5 1.68 5 1 5 C0.34 3.68 -0.32 2.36 -1 1 C-0.67 0.67 -0.34 0.34 0 0 Z " fill="#24B8A7" transform="translate(182,91)"/>
<path d="M0 0 C1.9453125 -0.29296875 1.9453125 -0.29296875 4.125 -0.1875 C5.40375 -0.125625 6.6825 -0.06375 8 0 C6.38405168 2.04119788 4.7143618 4.04072937 3 6 C2.34 6 1.68 6 1 6 C0.67 7.32 0.34 8.64 0 10 C-0.66 10 -1.32 10 -2 10 C-2.25 3.375 -2.25 3.375 0 0 Z " fill="#66B12E" transform="translate(147,84)"/>
<path d="M0 0 C3.1875 -0.3125 3.1875 -0.3125 6 0 C3.1359273 4.07579576 0.67647736 6.2229386 -4 8 C-7.25 8.3125 -7.25 8.3125 -10 8 C-10.66 7.34 -11.32 6.68 -12 6 C-11.34 6 -10.68 6 -10 6 C-9.67 5.34 -9.34 4.68 -9 4 C-8.38125 4.165 -7.7625 4.33 -7.125 4.5 C-5.03936614 5.07634644 -5.03936614 5.07634644 -3 5 C-2.5875 4.175 -2.175 3.35 -1.75 2.5 C-1.1725 1.675 -0.595 0.85 0 0 Z " fill="#29AE9C" transform="translate(127,116)"/>
<path d="M0 0 C1.485 0.99 1.485 0.99 3 2 C3.29296875 4.6015625 3.29296875 4.6015625 3.1875 7.625 C3.16042969 8.62789062 3.13335937 9.63078125 3.10546875 10.6640625 C3.07066406 11.43492188 3.03585937 12.20578125 3 13 C5.97 13.33 8.94 13.66 12 14 C12 12.35 12 10.7 12 9 C12.99 10.485 12.99 10.485 14 12 C13.67 12.99 13.34 13.98 13 15 C11.02090602 15.02686553 9.04171029 15.04633375 7.0625 15.0625 C5.96035156 15.07410156 4.85820312 15.08570312 3.72265625 15.09765625 C1 15 1 15 0 14 C-0.07271741 11.64686445 -0.08370868 9.29166332 -0.0625 6.9375 C-0.05347656 5.64714844 -0.04445313 4.35679688 -0.03515625 3.02734375 C-0.02355469 2.02832031 -0.01195312 1.02929688 0 0 Z " fill="#46ADA3" transform="translate(433,109)"/>
<path d="M0 0 C0.68707031 0.28875 1.37414062 0.5775 2.08203125 0.875 C2.98308594 1.24625 3.88414062 1.6175 4.8125 2 C5.70582031 2.37125 6.59914063 2.7425 7.51953125 3.125 C10.0331433 4.16633237 10.0331433 4.16633237 13 4 C13 4.66 13 5.32 13 6 C5.46467818 6.1255887 5.46467818 6.1255887 2.6875 5.375 C2.130625 5.25125 1.57375 5.1275 1 5 C0.01 5.66 -0.98 6.32 -2 7 C-1.67 7.66 -1.34 8.32 -1 9 C-1.99 9 -2.98 9 -4 9 C-4.33 9.66 -4.66 10.32 -5 11 C-4.46884894 6.48521602 -2.63379708 3.65333143 0 0 Z " fill="#3EB2A6" transform="translate(323,109)"/>
<path d="M0 0 C0 4.29 0 8.58 0 13 C-2.39763185 10.60236815 -2.34280586 9.66726502 -2.625 6.375 C-2.69976562 5.55773437 -2.77453125 4.74046875 -2.8515625 3.8984375 C-2.92503906 2.95871094 -2.92503906 2.95871094 -3 2 C-4.32 2 -5.64 2 -7 2 C-7.33 2.99 -7.66 3.98 -8 5 C-9.5 3.625 -9.5 3.625 -11 2 C-11 1.34 -11 0.68 -11 0 C-9.54263913 -0.19491452 -8.08405407 -0.38069358 -6.625 -0.5625 C-5.81289062 -0.66691406 -5.00078125 -0.77132812 -4.1640625 -0.87890625 C-2 -1 -2 -1 0 0 Z " fill="#76AC3D" transform="translate(139,83)"/>
<path d="M0 0 C0.66 0 1.32 0 2 0 C2 3.63 2 7.26 2 11 C-0.64 11 -3.28 11 -6 11 C-5 8 -5 8 -3 6.0625 C-0.94497246 3.94325285 -0.40893155 2.86252086 0 0 Z " fill="#69B22E" transform="translate(310,112)"/>
<path d="M0 0 C0.66 0 1.32 0 2 0 C7 5.23809524 7 5.23809524 7 10 C6.34 9.67 5.68 9.34 5 9 C3.62134766 8.33677734 3.62134766 8.33677734 2.21484375 7.66015625 C1.13332031 7.13292969 0.05179687 6.60570313 -1.0625 6.0625 C-2.14660156 5.53785156 -3.23070312 5.01320313 -4.34765625 4.47265625 C-7 3 -7 3 -8 1 C-5.03 1.99 -2.06 2.98 1 4 C0.67 2.68 0.34 1.36 0 0 Z " fill="#34B3A4" transform="translate(331,103)"/>
<path d="M0 0 C0.99 0.33 1.98 0.66 3 1 C4.16796875 3.50390625 4.16796875 3.50390625 5.1875 6.5625 C5.53167969 7.57441406 5.87585938 8.58632812 6.23046875 9.62890625 C6.48441406 10.41136719 6.73835937 11.19382813 7 12 C4 14 4 14 1.8125 13.625 C1.214375 13.41875 0.61625 13.2125 0 13 C0.33 12.113125 0.66 11.22625 1 10.3125 C1.91222143 7.29076653 2.18330958 5.11626294 2 2 C0.35 2 -1.3 2 -3 2 C-2.01 1.34 -1.02 0.68 0 0 Z " fill="#3AAC9F" transform="translate(125,129)"/>
<path d="M0 0 C0 3.11227195 -0.45627049 5.94152152 -1 9 C-2.32 9 -3.64 9 -5 9 C-5 8.01 -5 7.02 -5 6 C-6.98 6 -8.96 6 -11 6 C-11 5.01 -11 4.02 -11 3 C-9.9275 3.061875 -8.855 3.12375 -7.75 3.1875 C-3.89133813 2.99456691 -2.71182212 2.60334924 0 0 Z " fill="#2CAF9F" transform="translate(123,107)"/>
<path d="M0 0 C2 2 2 2 2.1953125 4.3828125 C2.13020833 6.921875 2.06510417 9.4609375 2 12 C5.96 12.33 9.92 12.66 14 13 C14 13.33 14 13.66 14 14 C9.38 14 4.76 14 0 14 C0 9.38 0 4.76 0 0 Z " fill="#54A370" transform="translate(453,110)"/>
<path d="M0 0 C0.99 0.33 1.98 0.66 3 1 C2.67 2.65 2.34 4.3 2 6 C4.01822917 5.90234375 6.03645833 5.8046875 8.0546875 5.70703125 C8.69664062 5.80371094 9.33859375 5.90039062 10 6 C10.99 7.485 10.99 7.485 12 9 C7.38 9 2.76 9 -2 9 C-2 8.34 -2 7.68 -2 7 C-1.34 7 -0.68 7 0 7 C0 4.69 0 2.38 0 0 Z " fill="#48B456" transform="translate(456,71)"/>
<path d="M0 0 C4.95 0 9.9 0 15 0 C15 0.33 15 0.66 15 1 C9.06 1.495 9.06 1.495 3 2 C2.87625 3.629375 2.7525 5.25875 2.625 6.9375 C2.4140625 9.71484375 2.4140625 9.71484375 2 12 C1.01 12.495 1.01 12.495 0 13 C0 8.71 0 4.42 0 0 Z " fill="#53A771" transform="translate(403,66)"/>
<path d="M0 0 C0.33 0.99 0.66 1.98 1 3 C2.98723268 3.70381157 4.98777953 4.3711811 7 5 C7.33 5.66 7.66 6.32 8 7 C3.45194365 7.17835515 0.1205746 6.99785435 -4 5 C-3.67 4.01 -3.34 3.02 -3 2 C-2.01 2 -1.02 2 0 2 C0 1.34 0 0.68 0 0 Z " fill="#39B6A9" transform="translate(330,118)"/>
<path d="M0 0 C0.66 0 1.32 0 2 0 C5.22265625 5.2734375 5.22265625 5.2734375 6 7 C5.67 7.66 5.34 8.32 5 9 C4.34 8.67 3.68 8.34 3 8 C3 7.01 3 6.02 3 5 C1.02 5.33 -0.96 5.66 -3 6 C-3 6.99 -3 7.98 -3 9 C-3.66 9 -4.32 9 -5 9 C-3.7580393 5.56072421 -2.44259716 2.74792181 0 0 Z " fill="#41B0A3" transform="translate(72,68)"/>
<path d="M0 0 C0.33 0 0.66 0 1 0 C0.67 2.97 0.34 5.94 0 9 C-3.64793184 10.27253436 -7.1936543 11.32829194 -11 12 C-9.60878255 9.2175651 -7.69835788 8.44789935 -5 7 C-4.34 7 -3.68 7 -3 7 C-2.690625 6.21625 -2.38125 5.4325 -2.0625 4.625 C-1 2 -1 2 0 0 Z " fill="#3FB2A4" transform="translate(254,99)"/>
<path d="M0 0 C4.62 0.66 9.24 1.32 14 2 C14.33 3.98 14.66 5.96 15 8 C14.278125 7.360625 13.55625 6.72125 12.8125 6.0625 C9.94523459 3.9598387 8.50897685 3.17544884 5 3 C2.24743756 3.84979475 2.24743756 3.84979475 0 5 C0 3.35 0 1.7 0 0 Z " fill="#3DAFA2" transform="translate(286,94)"/>
<path d="M0 0 C7.26 0 14.52 0 22 0 C20 2 20 2 17.6171875 2.1953125 C16.71226562 2.17210938 15.80734375 2.14890625 14.875 2.125 C13.50988281 2.09792969 13.50988281 2.09792969 12.1171875 2.0703125 C11.41851562 2.04710938 10.71984375 2.02390625 10 2 C10.33 2.99 10.66 3.98 11 5 C10.484375 4.71125 9.96875 4.4225 9.4375 4.125 C6.37643275 2.71219973 3.25055082 1.8751483 0 1 C0 0.67 0 0.34 0 0 Z " fill="#A8CE9D" transform="translate(114,82)"/>
<path d="M0 0 C2.1519437 3.22791555 2.20086443 4.28400809 2 8 C4.64 8.33 7.28 8.66 10 9 C10 9.33 10 9.66 10 10 C6.7 10.66 3.4 11.32 0 12 C0 8.04 0 4.08 0 0 Z " fill="#29B194" transform="translate(157,86)"/>
<path d="M0 0 C0.99 0.33 1.98 0.66 3 1 C2.01 2.485 2.01 2.485 1 4 C1.40595214 8.65815681 1.40595214 8.65815681 3 13 C1.68 13.33 0.36 13.66 -1 14 C-1.335939 12.5422647 -1.66866624 11.08378894 -2 9.625 C-2.185625 8.81289062 -2.37125 8.00078125 -2.5625 7.1640625 C-3 5 -3 5 -3 3 C-2.01 3 -1.02 3 0 3 C0 2.01 0 1.02 0 0 Z " fill="#30AC9C" transform="translate(109,97)"/>
<path d="M0 0 C0.33 0 0.66 0 1 0 C1 6.27 1 12.54 1 19 C1.99 19 2.98 19 4 19 C4 19.99 4 20.98 4 22 C2.68 22 1.36 22 0 22 C0 14.74 0 7.48 0 0 Z " fill="#26B1A0" transform="translate(384,101)"/>
<path d="M0 0 C2 2 2 2 2.25 5.25 C2.00879145 8.8681282 1.31162801 11.63895322 0 15 C-0.33 15 -0.66 15 -1 15 C-1.02693575 12.87506859 -1.04636628 10.75004088 -1.0625 8.625 C-1.07410156 7.44164063 -1.08570313 6.25828125 -1.09765625 5.0390625 C-1 2 -1 2 0 0 Z " fill="#47B3A4" transform="translate(136,98)"/>
<path d="M0 0 C1.65 0 3.3 0 5 0 C5.33 3.96 5.66 7.92 6 12 C5.34 12 4.68 12 4 12 C2.79727181 9.59454362 2.89928528 8.05003047 2.9375 5.375 C2.94652344 4.55773437 2.95554687 3.74046875 2.96484375 2.8984375 C2.97644531 2.27195312 2.98804688 1.64546875 3 1 C2.01 0.67 1.02 0.34 0 0 Z " fill="#37B474" transform="translate(412,67)"/>
<path d="M0 0 C-1.17578125 1.51953125 -1.17578125 1.51953125 -3 3 C-5.48046875 3.07421875 -5.48046875 3.07421875 -8.1875 2.6875 C-9.53908203 2.50767578 -9.53908203 2.50767578 -10.91796875 2.32421875 C-11.94857422 2.16373047 -11.94857422 2.16373047 -13 2 C-13 1.34 -13 0.68 -13 0 C-11.58456585 -0.19658808 -10.16755969 -0.38187546 -8.75 -0.5625 C-7.96109375 -0.66691406 -7.1721875 -0.77132812 -6.359375 -0.87890625 C-3.99467126 -1.00027349 -2.2488963 -0.69633257 0 0 Z " fill="#4CB352" transform="translate(232,111)"/>
<path d="M0 0 C0.66 0 1.32 0 2 0 C2.33 0.66 2.66 1.32 3 2 C4.64363134 2.72159424 6.31050386 3.39351421 8 4 C8 4.66 8 5.32 8 6 C7.34 6 6.68 6 6 6 C5.67 6.66 5.34 7.32 5 8 C3.0625 7.375 3.0625 7.375 1 6 C0.25 2.875 0.25 2.875 0 0 Z " fill="#2CAFA0" transform="translate(330,94)"/>
<path d="M0 0 C0.99 0.33 1.98 0.66 3 1 C3 1.99 3 2.98 3 4 C3.66 4 4.32 4 5 4 C5 7.3 5 10.6 5 14 C4.34 14 3.68 14 3 14 C2.86722656 13.24074219 2.73445312 12.48148438 2.59765625 11.69921875 C2.42105469 10.70535156 2.24445313 9.71148437 2.0625 8.6875 C1.88847656 7.70136719 1.71445313 6.71523437 1.53515625 5.69921875 C1.04253153 2.91810787 1.04253153 2.91810787 0 0 Z " fill="#37AB9F" transform="translate(252,85)"/>
<path d="M0 0 C-0.99 0.66 -1.98 1.32 -3 2 C-3.72965366 4.56282742 -3.72965366 4.56282742 -4 7 C-4.66 7 -5.32 7 -6 7 C-6.66 4.69 -7.32 2.38 -8 0 C-4.71023192 -1.09658936 -3.28696233 -0.79953138 0 0 Z " fill="#3FB8AB" transform="translate(378,83)"/>
<path d="M0 0 C4.29 0.33 8.58 0.66 13 1 C9.25631258 2.87184371 8.1599209 3.23999767 4.25 3.125 C3.45078125 3.10695313 2.6515625 3.08890625 1.828125 3.0703125 C1.22484375 3.04710938 0.6215625 3.02390625 0 3 C0 2.01 0 1.02 0 0 Z " fill="#60B43A" transform="translate(219,108)"/>
<path d="M0 0 C1.98 0.66 3.96 1.32 6 2 C6 2.99 6 3.98 6 5 C6.66 5.33 7.32 5.66 8 6 C7.67 7.65 7.34 9.3 7 11 C6.71125 10.38125 6.4225 9.7625 6.125 9.125 C5.06279958 6.86674235 5.06279958 6.86674235 3 5 C3.33 4.34 3.66 3.68 4 3 C3.34 3 2.68 3 2 3 C1.67 3.66 1.34 4.32 1 5 C0.67 3.35 0.34 1.7 0 0 Z " fill="#29B8A9" transform="translate(254,104)"/>
<path d="M0 0 C1.41778293 2.83556587 0.86257622 4.9908706 0.5625 8.125 C0.46066406 9.22070312 0.35882813 10.31640625 0.25390625 11.4453125 C0.17011719 12.28835937 0.08632812 13.13140625 0 14 C0.66 14 1.32 14 2 14 C1.67 15.32 1.34 16.64 1 18 C-0.32 17.34 -1.64 16.68 -3 16 C-2.34 15.67 -1.68 15.34 -1 15 C-1.01160156 14.00097656 -1.02320313 13.00195312 -1.03515625 11.97265625 C-1.04417969 10.68230469 -1.05320313 9.39195313 -1.0625 8.0625 C-1.07410156 6.77472656 -1.08570313 5.48695312 -1.09765625 4.16015625 C-1 1 -1 1 0 0 Z " fill="#3EAF78" transform="translate(157,84)"/>
<path d="M0 0 C3.33727786 1.17255709 5.77437487 2.18868404 8 5 C8 5.66 8 6.32 8 7 C6.35 7 4.7 7 3 7 C2.67 5.35 2.34 3.7 2 2 C1.34 2 0.68 2 0 2 C0 1.34 0 0.68 0 0 Z " fill="#2AAF9E" transform="translate(202,87)"/>
<path d="M0 0 C0 4.38968456 -2.12805101 5.76905739 -5 9 C-6.32 8.67 -7.64 8.34 -9 8 C-7 5 -7 5 -4 4 C-2.62804426 2.70644173 -1.28817344 1.37701298 0 0 Z " fill="#56B349" transform="translate(309,114)"/>
<path d="M0 0 C2.50853762 2.18133706 3.61952612 3.67085353 4 7 C3.72949547 9.00946222 3.40632091 11.01354224 3 13 C2.01 12.67 1.02 12.34 0 12 C0 10.68 0 9.36 0 8 C0.66 8 1.32 8 2 8 C1.34 5.36 0.68 2.72 0 0 Z " fill="#3CB6A9" transform="translate(442,100)"/>
<path d="M0 0 C2.375 -0.1875 2.375 -0.1875 5 0 C5.66 0.99 6.32 1.98 7 3 C2.545 3.495 2.545 3.495 -2 4 C-2 3.34 -2 2.68 -2 2 C-1.34 2 -0.68 2 0 2 C0 1.34 0 0.68 0 0 Z " fill="#48BAB0" transform="translate(292,121)"/>
<path d="M0 0 C0.99 0.33 1.98 0.66 3 1 C3 2.32 3 3.64 3 5 C-0.3 4.67 -3.6 4.34 -7 4 C-5.68 3.34 -4.36 2.68 -3 2 C-2.01 1.34 -1.02 0.68 0 0 Z " fill="#26B29F" transform="translate(340,90)"/>
<path d="M0 0 C-0.639375 0.28875 -1.27875 0.5775 -1.9375 0.875 C-4.15206079 1.82823451 -4.15206079 1.82823451 -5 4 C-6.32 4 -7.64 4 -9 4 C-9.33 2.68 -9.66 1.36 -10 0 C-6.42355152 -1.2380014 -3.66305234 -0.74926071 0 0 Z " fill="#28AD9B" transform="translate(384,84)"/>
<path d="M0 0 C0 3.96130371 -1.34877125 4.82914401 -4 7.6875 C-4.7425 8.49574219 -5.485 9.30398437 -6.25 10.13671875 C-6.8275 10.75160156 -7.405 11.36648437 -8 12 C-8.33 10.68 -8.66 9.36 -9 8 C-6.03 5.36 -3.06 2.72 0 0 Z " fill="#55B546" transform="translate(367,83)"/>
<path d="M0 0 C0.66 0 1.32 0 2 0 C2.33 0.66 2.66 1.32 3 2 C4.32 1.67 5.64 1.34 7 1 C7 2.65 7 4.3 7 6 C4.0625 5.25 4.0625 5.25 1 4 C0.125 1.875 0.125 1.875 0 0 Z " fill="#2BB09F" transform="translate(178,117)"/>
<path d="M0 0 C1.32 0.33 2.64 0.66 4 1 C0.12435233 4.61139896 0.12435233 4.61139896 -2 6 C-4.375 5.8125 -4.375 5.8125 -6 5 C-5.67 4.34 -5.34 3.68 -5 3 C-3.35 3 -1.7 3 0 3 C0 2.01 0 1.02 0 0 Z " fill="#31AD9D" transform="translate(255,115)"/>
<path d="M0 0 C1.32 0 2.64 0 4 0 C4.33 2.64 4.66 5.28 5 8 C2.5 6.25 2.5 6.25 0 4 C0 2.68 0 1.36 0 0 Z " fill="#69B622" transform="translate(132,85)"/>
<path d="M0 0 C3.29541333 2.57901913 3.50523153 4.95939086 4 9 C4.31674575 10.33737094 4.64270064 11.67288808 5 13 C4.34 13 3.68 13 3 13 C2.49242138 11.58603098 1.99425075 10.16868271 1.5 8.75 C1.08234375 7.56664063 1.08234375 7.56664063 0.65625 6.359375 C0 4 0 4 0 0 Z " fill="#42ADA1" transform="translate(78,77)"/>
<path d="M0 0 C7.50769231 -0.36923077 7.50769231 -0.36923077 10 1.5 C10.495 2.2425 10.495 2.2425 11 3 C10.34 3.66 9.68 4.32 9 5 C8.1646875 4.2575 8.1646875 4.2575 7.3125 3.5 C4.61837017 1.75245633 3.14624993 1.73781251 0 2 C0 1.34 0 0.68 0 0 Z " fill="#3BB3A7" transform="translate(189,95)"/>
<path d="M0 0 C1.48831242 0.00667405 2.97660807 0.01863442 4.46484375 0.03515625 C5.22345703 0.03966797 5.98207031 0.04417969 6.76367188 0.04882812 C8.64326246 0.06064945 10.52281274 0.07858547 12.40234375 0.09765625 C12.40234375 0.42765625 12.40234375 0.75765625 12.40234375 1.09765625 C11.48710937 1.15824219 10.571875 1.21882813 9.62890625 1.28125 C8.44039062 1.36503906 7.251875 1.44882813 6.02734375 1.53515625 C4.84398437 1.61636719 3.660625 1.69757813 2.44140625 1.78125 C-0.51284526 1.90850561 -0.51284526 1.90850561 -2.59765625 3.09765625 C-3.25765625 2.43765625 -3.91765625 1.77765625 -4.59765625 1.09765625 C-3.59765625 0.09765625 -3.59765625 0.09765625 0 0 Z " fill="#3AB278" transform="translate(123.59765625,94.90234375)"/>
<path d="M0 0 C3.93673644 1.31224548 6.22719294 2.91910327 9 6 C6.69 5.67 4.38 5.34 2 5 C2.33 4.01 2.66 3.02 3 2 C2.01 1.67 1.02 1.34 0 1 C0 0.67 0 0.34 0 0 Z " fill="#33AB9E" transform="translate(486,69)"/>
<path d="M0 0 C5.41538462 -0.36923077 5.41538462 -0.36923077 8.375 1.5 C8.91125 1.995 9.4475 2.49 10 3 C7.03 3 4.06 3 1 3 C0.67 2.01 0.34 1.02 0 0 Z " fill="#29AD9A" transform="translate(245,68)"/>
<path d="M0 0 C0.99 0.33 1.98 0.66 3 1 C1.9375 2.5625 1.9375 2.5625 0 4 C-3.6875 3.6875 -3.6875 3.6875 -7 3 C-6.67 2.34 -6.34 1.68 -6 1 C-5.01 1 -4.02 1 -3 1 C-3 1.66 -3 2.32 -3 3 C-2.01 2.01 -1.02 1.02 0 0 Z " fill="#27AF9D" transform="translate(201,119)"/>
<path d="M0 0 C0.33 0.66 0.66 1.32 1 2 C1.99 2.33 2.98 2.66 4 3 C2.35 4.65 0.7 6.3 -1 8 C-1.66 6.68 -2.32 5.36 -3 4 C-2.01 4 -1.02 4 0 4 C0 2.68 0 1.36 0 0 Z " fill="#54BBA9" transform="translate(371,93)"/>
<path d="M0 0 C0.33 1.32 0.66 2.64 1 4 C0.01 4 -0.98 4 -2 4 C-2.66 5.65 -3.32 7.3 -4 9 C-4.66 8.67 -5.32 8.34 -6 8 C-4.02 5.36 -2.04 2.72 0 0 Z " fill="#46B2A3" transform="translate(178,87)"/>
<path d="M0 0 C0.66 0 1.32 0 2 0 C1.34 3.96 0.68 7.92 0 12 C-0.33 12 -0.66 12 -1 12 C-1.02687279 10.18757948 -1.04633715 8.37504767 -1.0625 6.5625 C-1.07410156 5.55316406 -1.08570313 4.54382813 -1.09765625 3.50390625 C-1 1 -1 1 0 0 Z " fill="#82B055" transform="translate(145,83)"/>
<path d="M0 0 C3.26460973 1.80412643 4.88929795 2.83394693 7 6 C6.01 6.33 5.02 6.66 4 7 C3.67 6.01 3.34 5.02 3 4 C0.99983534 2.79117904 0.99983534 2.79117904 -1 2 C-0.67 1.34 -0.34 0.68 0 0 Z " fill="#31AA99" transform="translate(385,85)"/>
<path d="" fill="#FFFFFF" transform="translate(0,0)"/>
</svg>
